<?xml version="1.0" encoding="UTF-8"?>
<svg version="1.1" xmlns="http://www.w3.org/2000/svg" width="772" height="794">
<path d="M0 0 C254.76 0 509.52 0 772 0 C772 262.02 772 524.04 772 794 C517.24 794 262.48 794 0 794 C0 531.98 0 269.96 0 0 Z " fill="#FDFBF1" transform="translate(0,0)"/>
<path d="M0 0 C1.53639812 0.59707179 3.07773822 1.18167362 4.625 1.75 C5.73875 2.1625 6.8525 2.575 8 3 C8 3.66 8 4.32 8 5 C9.32 5 10.64 5 12 5 C12 5.66 12 6.32 12 7 C15.96 7.495 15.96 7.495 20 8 C20 8.66 20 9.32 20 10 C20.57234375 10.13277344 21.1446875 10.26554687 21.734375 10.40234375 C23.97650875 10.99380317 26.08579619 11.73288854 28.25 12.5625 C28.95640625 12.83191406 29.6628125 13.10132812 30.390625 13.37890625 C30.92171875 13.58386719 31.4528125 13.78882812 32 14 C32 14.66 32 15.32 32 16 C32.763125 16.144375 33.52625 16.28875 34.3125 16.4375 C37 17 37 17 40 18 C40 18.66 40 19.32 40 20 C40.99 20 41.98 20 43 20 C43 20.66 43 21.32 43 22 C45.97 22.33 48.94 22.66 52 23 C52 23.66 52 24.32 52 25 C52.70125 25.103125 53.4025 25.20625 54.125 25.3125 C57.39137647 26.09359003 60.0471852 27.42058743 63 29 C63 29.66 63 30.32 63 31 C66.96 31.495 66.96 31.495 71 32 C71 32.66 71 33.32 71 34 C71.58265625 34.12503906 72.1653125 34.25007813 72.765625 34.37890625 C74.99262818 34.99795084 76.72830049 35.83057775 78.75 36.9375 C82.76113301 39.01092402 86.59290055 40.05562155 91 41 C91 41.66 91 42.32 91 43 C92.32 43 93.64 43 95 43 C95 43.66 95 44.32 95 45 C95.598125 45.144375 96.19625 45.28875 96.8125 45.4375 C98.56150404 45.8872439 100.28677023 46.42892341 102 47 C102 47.66 102 48.32 102 49 C102.99 49.12375 102.99 49.12375 104 49.25 C107.36228463 50.09057116 110.0831169 51.4486533 113.1328125 53.0625 C115.1406578 54.12637293 115.1406578 54.12637293 118 55 C118 55.66 118 56.32 118 57 C121.96 57.495 121.96 57.495 126 58 C126 58.66 126 59.32 126 60 C127.32 60 128.64 60 130 60 C130 60.66 130 61.32 130 62 C130.5775 62.13535156 131.155 62.27070313 131.75 62.41015625 C136.6762369 63.70158294 141.52057685 65.5736458 146 68 C146 68.66 146 69.32 146 70 C147.60875 70.185625 147.60875 70.185625 149.25 70.375 C152.37863615 70.89643936 154.33480424 71.40088254 157 73 C157 73.66 157 74.32 157 75 C159.97 75.33 162.94 75.66 166 76 C166 76.66 166 77.32 166 78 C167.32 78 168.64 78 170 78 C170 78.66 170 79.32 170 80 C170.598125 80.144375 171.19625 80.28875 171.8125 80.4375 C173.56150404 80.8872439 175.28677023 81.42892341 177 82 C177 82.66 177 83.32 177 84 C178.32 84 179.64 84 181 84 C181 84.66 181 85.32 181 86 C182.9490625 86.185625 182.9490625 86.185625 184.9375 86.375 C187.15234375 86.5859375 187.15234375 86.5859375 189 87 C189.33 87.66 189.66 88.32 190 89 C192.3140622 89.73075648 194.64828869 90.40138258 197 91 C197 91.66 197 92.32 197 93 C198.32 93 199.64 93 201 93 C201 93.66 201 94.32 201 95 C204.96 95.495 204.96 95.495 209 96 C209 96.66 209 97.32 209 98 C209.5775 98.144375 210.155 98.28875 210.75 98.4375 C212.83333333 98.95833333 214.91666667 99.47916667 217 100 C217 100.66 217 101.32 217 102 C218.32 102 219.64 102 221 102 C221 102.66 221 103.32 221 104 C222.32 104 223.64 104 225 104 C225 104.66 225 105.32 225 106 C225.8971875 106.2165625 225.8971875 106.2165625 226.8125 106.4375 C228.56150404 106.8872439 230.28677023 107.42892341 232 108 C232 108.66 232 109.32 232 110 C233.32 110 234.64 110 236 110 C236 110.66 236 111.32 236 112 C237.32 112 238.64 112 240 112 C240 112.66 240 113.32 240 114 C243.96 114.495 243.96 114.495 248 115 C248 115.66 248 116.32 248 117 C249.32 117 250.64 117 252 117 C252 117.66 252 118.32 252 119 C253.32 119 254.64 119 256 119 C256 119.66 256 120.32 256 121 C257.32 121 258.64 121 260 121 C260 121.66 260 122.32 260 123 C261.5778125 123.185625 261.5778125 123.185625 263.1875 123.375 C266.45958771 123.91140782 269.00536076 124.63880035 272 126 C272 126.66 272 127.32 272 128 C273.98 128.66 275.96 129.32 278 130 C278 130.66 278 131.32 278 132 C278.66 132 279.32 132 280 132 C280.66 133.65 281.32 135.3 282 137 C282.66 137 283.32 137 284 137 C284.10883596 139.37625177 284.18766696 141.74743976 284.25 144.125 C284.28351562 144.79015625 284.31703125 145.4553125 284.3515625 146.140625 C284.45236898 151.28175552 283.24460291 154.06679432 280 158 C277 160 277 160 274 160 C274 160.66 274 161.32 274 162 C273.01 162 272.02 162 271 162 C271 162.66 271 163.32 271 164 C269.68 164 268.36 164 267 164 C267 164.66 267 165.32 267 166 C265.75336669 166.50833591 264.50250613 167.00631145 263.25 167.5 C262.55390625 167.7784375 261.8578125 168.056875 261.140625 168.34375 C259 169 259 169 255 169 C255 169.66 255 170.32 255 171 C253.68 171 252.36 171 251 171 C251 171.66 251 172.32 251 173 C249.68 173 248.36 173 247 173 C247 173.66 247 174.32 247 175 C245.68 175 244.36 175 243 175 C243 175.66 243 176.32 243 177 C242.01 177 241.02 177 240 177 C240 177.66 240 178.32 240 179 C238.58603098 179.50757862 237.16868271 180.00574925 235.75 180.5 C234.96109375 180.7784375 234.1721875 181.056875 233.359375 181.34375 C231 182 231 182 227 182 C227 182.66 227 183.32 227 184 C225.68 184 224.36 184 223 184 C223 184.66 223 185.32 223 186 C220.35261084 187.4606285 219.10551666 188 216 188 C216 188.66 216 189.32 216 190 C213.36 190.33 210.72 190.66 208 191 C208 191.66 208 192.32 208 193 C206.68 193 205.36 193 204 193 C204 193.66 204 194.32 204 195 C201.09399739 196.25664978 199.20395416 197 196 197 C196 197.66 196 198.32 196 199 C194.68 199 193.36 199 192 199 C192 199.66 192 200.32 192 201 C190.06532058 201.83986084 188.12714871 202.67168027 186.1875 203.5 C185.10855469 203.9640625 184.02960938 204.428125 182.91796875 204.90625 C180 206 180 206 177 206 C177 206.66 177 207.32 177 208 C175.7625 208.45375 174.525 208.9075 173.25 209.375 C170.98514396 210.21634617 168.88924057 211.05845637 166.75 212.1875 C165 213 165 213 161 213 C161 213.66 161 214.32 161 215 C159.68 215 158.36 215 157 215 C157 215.66 157 216.32 157 217 C156.34 217 155.68 217 155 217 C155 246.7 155 276.4 155 307 C154.34 307 153.68 307 153 307 C152.87625 307.78375 152.7525 308.5675 152.625 309.375 C152 312 152 312 150 314 C148.68 314 147.36 314 146 314 C146 314.66 146 315.32 146 316 C136.56411582 316.92140641 136.56411582 316.92140641 132.8515625 314.734375 C131.0625 313.125 131.0625 313.125 129.53515625 311.5078125 C127.82260451 309.82576423 126.14674649 309.04331879 124 308 C122.33333333 306.33333333 120.66666667 304.66666667 119 303 C117.74367568 302.08393018 116.47237244 301.1880784 115.1875 300.3125 C113.6096875 299.1678125 113.6096875 299.1678125 112 298 C112 297.34 112 296.68 112 296 C111.34 296 110.68 296 110 296 C110 295.34 110 294.68 110 294 C108.02 293.67 106.04 293.34 104 293 C104 292.34 104 291.68 104 291 C103.34 291 102.68 291 102 291 C102 290.34 102 289.68 102 289 C101.01 289 100.02 289 99 289 C99 288.34 99 287.68 99 287 C98.01 287 97.02 287 96 287 C96 286.34 96 285.68 96 285 C94.02 284.67 92.04 284.34 90 284 C90 283.01 90 282.02 90 281 C89.44828125 280.87753906 88.8965625 280.75507813 88.328125 280.62890625 C85.70408745 279.92006389 83.2663047 278.96388744 80.75 277.9375 C79.85796875 277.57527344 78.9659375 277.21304687 78.046875 276.83984375 C77.37140625 276.56269531 76.6959375 276.28554688 76 276 C76 275.34 76 274.68 76 274 C72.04 273.01 68.08 272.02 64 271 C64 270.34 64 269.68 64 269 C61.03 268.34 58.06 267.68 55 267 C55 266.34 55 265.68 55 265 C53.02 265 51.04 265 49 265 C49 264.34 49 263.68 49 263 C47.35 263 45.7 263 44 263 C44 262.34 44 261.68 44 261 C42.7934375 261.0309375 42.7934375 261.0309375 41.5625 261.0625 C39 261 39 261 38 260 C35.14471393 259.599617 32.30263513 259.2481773 29.4375 258.9375 C28.63119141 258.84662109 27.82488281 258.75574219 26.99414062 258.66210938 C24.99652623 258.43752551 22.9983144 258.21826764 21 258 C21 257.34 21 256.68 21 256 C20.21753906 256.01160156 19.43507813 256.02320313 18.62890625 256.03515625 C17.11103516 256.04869141 17.11103516 256.04869141 15.5625 256.0625 C14.55316406 256.07410156 13.54382813 256.08570313 12.50390625 256.09765625 C10 256 10 256 9 255 C7.37420782 254.87718048 5.74322996 254.82217496 4.11303711 254.79467773 C3.07203354 254.77473251 2.03102997 254.75478729 0.95848083 254.73423767 C-0.1737944 254.71752518 -1.30606964 254.70081268 -2.47265625 254.68359375 C-4.20182533 254.6524221 -4.20182533 254.6524221 -5.96592712 254.62062073 C-9.66472157 254.55500036 -13.36358959 254.49618245 -17.0625 254.4375 C-19.56315879 254.39432665 -22.06381001 254.35071276 -24.56445312 254.30664062 C-30.70955662 254.19930632 -36.85473404 254.09756357 -43 254 C-43 254.66 -43 255.32 -43 256 C-46.63 256 -50.26 256 -54 256 C-54 256.66 -54 257.32 -54 258 C-59.38490641 258.91657981 -64.54230189 259.11138159 -70 259 C-70 259.66 -70 260.32 -70 261 C-70.969375 261.268125 -71.93875 261.53625 -72.9375 261.8125 C-75.87810843 262.6415965 -78.74475992 263.6070257 -81.625 264.625 C-84.86575554 265.72741086 -87.53990305 266.33484809 -91 266 C-91 266.66 -91 267.32 -91 268 C-92.65 268 -94.3 268 -96 268 C-96 268.66 -96 269.32 -96 270 C-97.32 270 -98.64 270 -100 270 C-100 270.66 -100 271.32 -100 272 C-101.32 272 -102.64 272 -104 272 C-104 272.66 -104 273.32 -104 274 C-104.99 274 -105.98 274 -107 274 C-107 274.66 -107 275.32 -107 276 C-109.31 276.33 -111.62 276.66 -114 277 C-114 277.66 -114 278.32 -114 279 C-115.32 279 -116.64 279 -118 279 C-118.66 280.32 -119.32 281.64 -120 283 C-121.32 283 -122.64 283 -124 283 C-124 283.66 -124 284.32 -124 285 C-124.99 285 -125.98 285 -127 285 C-127 285.66 -127 286.32 -127 287 C-127.66 287 -128.32 287 -129 287 C-129 287.66 -129 288.32 -129 289 C-134.625 292 -134.625 292 -138 292 C-138 292.66 -138 293.32 -138 294 C-138.66 294 -139.32 294 -140 294 C-140 294.66 -140 295.32 -140 296 C-141.66220581 297.00739746 -143.33020674 298.00522955 -145 299 C-146.82265727 300.55942887 -148.59497766 302.1595833 -150.3515625 303.79296875 C-152 305 -152 305 -155 305 C-155 305.66 -155 306.32 -155 307 C-155.66 307 -156.32 307 -157 307 C-157.4021875 307.86625 -157.4021875 307.86625 -157.8125 308.75 C-159.76943809 312.4578827 -160.92938213 314.64312738 -165 316 C-170.26721247 316.50439554 -174.65121655 316.62622089 -179.5 314.375 C-183.3193476 310.74661978 -185.1295403 307.16053604 -185.36076355 301.89968872 C-185.36938936 300.31611027 -185.36164454 298.73238757 -185.34057617 297.14892578 C-185.34101425 296.27998184 -185.34145233 295.4110379 -185.34190369 294.51576233 C-185.33982247 291.65871295 -185.31652299 288.8022587 -185.29296875 285.9453125 C-185.28737042 283.95848918 -185.28310144 281.97166171 -185.28010559 279.98483276 C-185.26867549 274.76676918 -185.23922401 269.54895787 -185.20599365 264.33099365 C-185.17525325 259.00194714 -185.16159177 253.6728597 -185.14648438 248.34375 C-185.11435263 237.89572277 -185.0631784 227.4478824 -185 217 C-186.98 216.67 -188.96 216.34 -191 216 C-191 215.01 -191 214.02 -191 213 C-192.051875 212.896875 -193.10375 212.79375 -194.1875 212.6875 C-198.02159688 211.99610548 -199.75281454 211.01016243 -203 209 C-205.96499365 207.88549884 -208.97591482 206.94007142 -212 206 C-212.99 205.67 -213.98 205.34 -215 205 C-215 204.34 -215 203.68 -215 203 C-216.32 203 -217.64 203 -219 203 C-219 202.34 -219 201.68 -219 201 C-219.8353125 200.814375 -219.8353125 200.814375 -220.6875 200.625 C-224.36869519 199.63008238 -227.27565846 198.72434154 -230 196 C-232.06874034 195.3574765 -232.06874034 195.3574765 -234 195 C-234 194.34 -234 193.68 -234 193 C-234.721875 192.855625 -235.44375 192.71125 -236.1875 192.5625 C-238.79166667 192.04166667 -241.39583333 191.52083333 -244 191 C-243.67 214.1 -243.34 237.2 -243 261 C-241.68 261.66 -240.36 262.32 -239 263 C-236.88942301 265.93973224 -236 267.34648137 -236 271 C-235.34 271 -234.68 271 -234 271 C-229.67285969 277.89637986 -228.97911049 283.93104635 -230 292 C-231.02481705 295.20697059 -232.31491772 298.08871945 -234 301 C-234.66 301 -235.32 301 -236 301 C-236.33 302.32 -236.66 303.64 -237 305 C-237.66 305 -238.32 305 -239 305 C-239 305.66 -239 306.32 -239 307 C-239.66 307 -240.32 307 -241 307 C-240.74605469 307.71542969 -240.49210937 308.43085938 -240.23046875 309.16796875 C-237.96116491 315.73790083 -236.19870043 322.25840672 -234.71875 329.046875 C-234.12009376 331.50657129 -233.41397705 333.67598463 -232.4375 336 C-230.54649391 340.60375827 -230.07185693 345.43344398 -229.4296875 350.33984375 C-229.27998073 352.91512041 -229.27998073 352.91512041 -228 354 C-227.95907063 356.33297433 -227.95758277 358.66705225 -228 361 C-227.34 361 -226.68 361 -226 361 C-226 363.31 -226 365.62 -226 368 C-225.34 368 -224.68 368 -224 368 C-224 372.29 -224 376.58 -224 381 C-224.66 381 -225.32 381 -226 381 C-226.0825 381.78375 -226.165 382.5675 -226.25 383.375 C-227 386 -227 386 -229.0625 387.3125 C-229.701875 387.539375 -230.34125 387.76625 -231 388 C-231 388.66 -231 389.32 -231 390 C-231.99 390 -232.98 390 -234 390 C-234 390.66 -234 391.32 -234 392 C-238.85155733 393.24485261 -243.63942874 393.17936532 -248.61328125 393.203125 C-249.54166306 393.20882507 -250.47004486 393.21452515 -251.42655945 393.22039795 C-253.38747018 393.22982476 -255.34839659 393.23637269 -257.30932617 393.24023438 C-260.29178837 393.24993265 -263.2735589 393.28097515 -266.25585938 393.3125 C-268.1666626 393.31903167 -270.07747073 393.3242815 -271.98828125 393.328125 C-272.8718782 393.3404718 -273.75547516 393.3528186 -274.66584778 393.36553955 C-280.44690772 393.34498688 -284.74117048 392.45825422 -290 390 C-292.3582726 387.05215925 -293 385.77583766 -293 382 C-293.66 382 -294.32 382 -295 382 C-295.05454409 379.64551325 -295.0939279 377.29232125 -295.125 374.9375 C-295.14820313 373.62652344 -295.17140625 372.31554687 -295.1953125 370.96484375 C-294.9992182 366.98412949 -294.19006532 363.78657148 -293 360 C-292.74944479 358.52739724 -292.53137457 357.04805841 -292.375 355.5625 C-292.25125 354.386875 -292.1275 353.21125 -292 352 C-291.34 352 -290.68 352 -290 352 C-290.020625 351.030625 -290.04125 350.06125 -290.0625 349.0625 C-290 346 -290 346 -289 345 C-288.63239269 342.67182036 -288.29758419 340.3381615 -288 338 C-287.34 338 -286.68 338 -286 338 C-285.67 333.05 -285.34 328.1 -285 323 C-284.34 323 -283.68 323 -283 323 C-283 320.36 -283 317.72 -283 315 C-282.34 315 -281.68 315 -281 315 C-281.11409593 313.54077307 -281.24165544 312.08259402 -281.375 310.625 C-281.44460938 309.81289063 -281.51421875 309.00078125 -281.5859375 308.1640625 C-281.82892588 305.79665809 -281.82892588 305.79665809 -284 304 C-284 303.01 -284 302.02 -284 301 C-284.66 301 -285.32 301 -286 301 C-286 300.01 -286 299.02 -286 298 C-286.66 298 -287.32 298 -288 298 C-288 296.68 -288 295.36 -288 294 C-288.66 294 -289.32 294 -290 294 C-290 288.39 -290 282.78 -290 277 C-289.34 277 -288.68 277 -288 277 C-287.67 274.69 -287.34 272.38 -287 270 C-286.34 270 -285.68 270 -285 270 C-284.01 268.02 -284.01 268.02 -283 266 C-282.01 266 -281.02 266 -280 266 C-280 265.34 -280 264.68 -280 264 C-279.01 264 -278.02 264 -277 264 C-277 263.34 -277 262.68 -277 262 C-276.34 262 -275.68 262 -275 262 C-275 233.29 -275 204.58 -275 175 C-276.32 175 -277.64 175 -279 175 C-279 174.34 -279 173.68 -279 173 C-279.99 173 -280.98 173 -282 173 C-282 172.34 -282 171.68 -282 171 C-284.97 170.67 -287.94 170.34 -291 170 C-291 169.34 -291 168.68 -291 168 C-293.64 167.34 -296.28 166.68 -299 166 C-299 165.34 -299 164.68 -299 164 C-299.8353125 163.8453125 -299.8353125 163.8453125 -300.6875 163.6875 C-305.41598692 162.28173362 -310.54344592 159.25765882 -313.25 155.0625 C-314 153 -314 153 -314 149 C-314.66 149 -315.32 149 -316 149 C-316 146.03 -316 143.06 -316 140 C-315.34 140 -314.68 140 -314 140 C-313.938125 139.278125 -313.87625 138.55625 -313.8125 137.8125 C-312.7446249 134.11600926 -310.89180184 132.46861132 -308 130 C-307.34 130 -306.68 130 -306 130 C-306 129.34 -306 128.68 -306 128 C-303.35261084 126.5393715 -302.10551666 126 -299 126 C-299 125.34 -299 124.68 -299 124 C-297.08717875 123.15787744 -295.16957527 122.32661136 -293.25 121.5 C-291.64898437 120.80390625 -291.64898437 120.80390625 -290.015625 120.09375 C-287 119 -287 119 -283 119 C-283 118.34 -283 117.68 -283 117 C-282.401875 116.896875 -281.80375 116.79375 -281.1875 116.6875 C-278.92027543 116.16745356 -278.92027543 116.16745356 -277.5 114.4375 C-276 113 -276 113 -272 113 C-272 112.34 -272 111.68 -272 111 C-271.443125 110.82984375 -270.88625 110.6596875 -270.3125 110.484375 C-265.51814608 108.96184369 -261.13752474 107.19283766 -256.7265625 104.76953125 C-255 104 -255 104 -252 104 C-252 103.34 -252 102.68 -252 102 C-250.68 102 -249.36 102 -248 102 C-248 101.34 -248 100.68 -248 100 C-245.36 99.67 -242.72 99.34 -240 99 C-240 98.34 -240 97.68 -240 97 C-238.68 97 -237.36 97 -236 97 C-236 96.34 -236 95.68 -236 95 C-233.09399739 93.74335022 -231.20395416 93 -228 93 C-228 92.34 -228 91.68 -228 91 C-226.68 91 -225.36 91 -224 91 C-224 90.34 -224 89.68 -224 89 C-221.36 88.67 -218.72 88.34 -216 88 C-216 87.34 -216 86.68 -216 86 C-213.35261084 84.5393715 -212.10551666 84 -209 84 C-209 83.34 -209 82.68 -209 82 C-207.68 82 -206.36 82 -205 82 C-205 81.34 -205 80.68 -205 80 C-200.545 79.505 -200.545 79.505 -196 79 C-196 78.34 -196 77.68 -196 77 C-194.68 77 -193.36 77 -192 77 C-192 76.34 -192 75.68 -192 75 C-189.35261084 73.5393715 -188.10551666 73 -185 73 C-185 72.34 -185 71.68 -185 71 C-182.36 70.34 -179.72 69.68 -177 69 C-177 68.34 -177 67.68 -177 67 C-175.68 67 -174.36 67 -173 67 C-173 66.34 -173 65.68 -173 65 C-171.68 65 -170.36 65 -169 65 C-169 64.34 -169 63.68 -169 63 C-166.36 62.67 -163.72 62.34 -161 62 C-161 61.34 -161 60.68 -161 60 C-159.68 60 -158.36 60 -157 60 C-157 59.34 -157 58.68 -157 58 C-156.01 58 -155.02 58 -154 58 C-154 57.34 -154 56.68 -154 56 C-149.545 55.505 -149.545 55.505 -145 55 C-145 54.34 -145 53.68 -145 53 C-143.68 53 -142.36 53 -141 53 C-141 52.34 -141 51.68 -141 51 C-138.35261084 49.5393715 -137.10551666 49 -134 49 C-134 48.34 -134 47.68 -134 47 C-132.68 47 -131.36 47 -130 47 C-130 46.34 -130 45.68 -130 45 C-128.68 45 -127.36 45 -126 45 C-126 44.34 -126 43.68 -126 43 C-124.68 43 -123.36 43 -122 43 C-122 42.34 -122 41.68 -122 41 C-120.56445975 40.49440092 -119.1264798 39.9957251 -117.6875 39.5 C-116.88699219 39.2215625 -116.08648437 38.943125 -115.26171875 38.65625 C-113 38 -113 38 -110 38 C-110 37.34 -110 36.68 -110 36 C-108.68 36 -107.36 36 -106 36 C-106 35.34 -106 34.68 -106 34 C-103.36 33.67 -100.72 33.34 -98 33 C-98 32.34 -98 31.68 -98 31 C-94.91190305 29.23537317 -93.76687864 29 -90 29 C-90 28.34 -90 27.68 -90 27 C-87.36 26.67 -84.72 26.34 -82 26 C-82 25.34 -82 24.68 -82 24 C-80.0848421 23.18395001 -78.16781166 22.37229368 -76.25 21.5625 C-75.18265625 21.11003906 -74.1153125 20.65757813 -73.015625 20.19140625 C-70.6586159 19.26020447 -68.47007165 18.5215928 -66 18 C-66 17.34 -66 16.68 -66 16 C-65.01 16 -64.02 16 -63 16 C-63 15.34 -63 14.68 -63 14 C-61.68 14 -60.36 14 -59 14 C-59 13.34 -59 12.68 -59 12 C-58.27554687 11.74605469 -57.55109375 11.49210937 -56.8046875 11.23046875 C-52.58934923 9.72980833 -48.50669683 8.25334841 -44.5 6.25 C-42 5 -42 5 -39 5 C-39 4.34 -39 3.68 -39 3 C-37.68 3 -36.36 3 -35 3 C-35 2.34 -35 1.68 -35 1 C-32.36 0.67 -29.72 0.34 -27 0 C-27 -0.66 -27 -1.32 -27 -2 C-17.45080849 -6.12938011 -9.04274049 -4.15638319 0 0 Z " fill="#D64838" transform="translate(404,72)"/>
<path d="M0 0 C0 0.66 0 1.32 0 2 C0.95712891 1.98259766 0.95712891 1.98259766 1.93359375 1.96484375 C2.75988281 1.95582031 3.58617187 1.94679688 4.4375 1.9375 C5.26121094 1.92589844 6.08492187 1.91429687 6.93359375 1.90234375 C9 2 9 2 10 3 C13.08848623 3.44820715 16.17593411 3.81850426 19.27734375 4.16210938 C23.13232816 4.62788843 26.52390635 5.22928312 30 7 C30.33 7.66 30.66 8.32 31 9 C33.11846285 9.68729254 33.11846285 9.68729254 35.5625 10.125 C36.80193359 10.37636719 36.80193359 10.37636719 38.06640625 10.6328125 C39.02353516 10.81457031 39.02353516 10.81457031 40 11 C40 11.66 40 12.32 40 13 C41.32 13 42.64 13 44 13 C44 13.66 44 14.32 44 15 C45.32 15 46.64 15 48 15 C48 15.66 48 16.32 48 17 C49.175625 17.0825 50.35125 17.165 51.5625 17.25 C56.15469785 17.79844431 59.14249265 19.50869317 63 22 C63 22.66 63 23.32 63 24 C63.99 24 64.98 24 66 24 C66 24.66 66 25.32 66 26 C67.65 26.33 69.3 26.66 71 27 C71.33 27.99 71.66 28.98 72 30 C72.763125 30.103125 73.52625 30.20625 74.3125 30.3125 C77.29903817 31.07649814 77.96692248 31.79749935 80 34 C80.886875 34.515625 81.77375 35.03125 82.6875 35.5625 C83.450625 36.036875 84.21375 36.51125 85 37 C85 37.66 85 38.32 85 39 C85.57621094 39.25652344 86.15242188 39.51304687 86.74609375 39.77734375 C89.97490111 41.52884583 92.41150253 43.96148314 95.09765625 46.44140625 C97.01883893 48.2044029 97.01883893 48.2044029 100 49 C101.6484375 50.890625 101.6484375 50.890625 103.375 53.25 C105.40932267 55.96243022 107.3440338 58.3440338 109.75 60.75 C112 63 112 63 113.3515625 65.328125 C115.74187171 69.20246504 118.8874778 72.23622296 122.0390625 75.5 C124.0922287 78.11758241 124.66156901 79.73239043 125 83 C125.66 83 126.32 83 127 83 C127.66 84.98 128.32 86.96 129 89 C129.66 89 130.32 89 131 89 C131.33 91.31 131.66 93.62 132 96 C132.66 96 133.32 96 134 96 C134 96.99 134 97.98 134 99 C134.66 99 135.32 99 136 99 C136 100.32 136 101.64 136 103 C136.66 103 137.32 103 138 103 C138 104.32 138 105.64 138 107 C138.66 107 139.32 107 140 107 C140 108.32 140 109.64 140 111 C140.66 111 141.32 111 142 111 C142.33 114.63 142.66 118.26 143 122 C143.66 122 144.32 122 145 122 C146.6157231 127.46860126 147.98850288 132.97789285 149.31640625 138.5234375 C149.75993429 140.92442551 149.75993429 140.92442551 151 142 C151.32097751 144.31817089 151.51220956 146.63779357 151.71875 148.96875 C151.79065837 150.99180593 151.79065837 150.99180593 153 152 C155.22410208 172.34641533 155.55506736 195.00040736 151 215 C150.67 215.33 150.34 215.66 150 216 C149.87625 217.051875 149.7525 218.10375 149.625 219.1875 C149 223 149 223 147.5625 225.75 C145.36356208 230.32379086 144.75455034 235.01109069 144 240 C143.34 240 142.68 240 142 240 C142.061875 241.3921875 142.061875 241.3921875 142.125 242.8125 C142 246 142 246 140 249 C139.34 249 138.68 249 138 249 C138 250.32 138 251.64 138 253 C137.34 253 136.68 253 136 253 C136 253.99 136 254.98 136 256 C135.34 256 134.68 256 134 256 C133.67 258.64 133.34 261.28 133 264 C132.34 264 131.68 264 131 264 C131 264.99 131 265.98 131 267 C130.34 267 129.68 267 129 267 C128.34 268.98 127.68 270.96 127 273 C126.34 273 125.68 273 125 273 C125 273.99 125 274.98 125 276 C124.34 276 123.68 276 123 276 C122.896875 276.639375 122.79375 277.27875 122.6875 277.9375 C122.460625 278.618125 122.23375 279.29875 122 280 C121.01 280.33 120.02 280.66 119 281 C118.64587656 282.32796291 118.31478446 283.66216607 118 285 C117.02246356 286.02196992 116.0194119 287.01979625 115 288 C114.5875 288.7425 114.175 289.485 113.75 290.25 C111.36619955 293.99597213 108.40848416 297.15001445 105 300 C104.34 300 103.68 300 103 300 C103 300.66 103 301.32 103 302 C102.34 302 101.68 302 101 302 C101 302.66 101 303.32 101 304 C100.34 304 99.68 304 99 304 C98.731875 304.598125 98.46375 305.19625 98.1875 305.8125 C97.00082594 307.99847854 95.90400887 309.41332594 94 311 C93.34 311 92.68 311 92 311 C92 311.66 92 312.32 92 313 C91.34 313 90.68 313 90 313 C89.773125 313.598125 89.54625 314.19625 89.3125 314.8125 C87.63493047 317.60844922 85.83065906 318.42009727 83 320 C82.13375 320.721875 81.2675 321.44375 80.375 322.1875 C78 324 78 324 75 324 C75 324.66 75 325.32 75 326 C74.01 326 73.02 326 72 326 C72 326.66 72 327.32 72 328 C70.56705502 328.84114171 69.12845595 329.67265687 67.6875 330.5 C66.88699219 330.9640625 66.08648437 331.428125 65.26171875 331.90625 C63 333 63 333 60 333 C60 333.66 60 334.32 60 335 C57.35261084 336.4606285 56.10551666 337 53 337 C53 337.66 53 338.32 53 339 C51.783125 339.433125 50.56625 339.86625 49.3125 340.3125 C46.81925239 341.2349581 44.85846057 342.09311805 42.625 343.5625 C39.22294506 345.42553009 35.91087209 345.92923163 32.109375 346.5703125 C30.02273838 346.79334973 30.02273838 346.79334973 29 348 C27.33382885 348.04063832 25.66611905 348.042721 24 348 C24 348.66 24 349.32 24 350 C19.49646738 351.75747614 15.82360189 352.19294408 11 352 C11 352.66 11 353.32 11 354 C8.03 354 5.06 354 2 354 C2 354.66 2 355.32 2 356 C-15.49 356 -32.98 356 -51 356 C-51 355.34 -51 354.68 -51 354 C-54.63 354 -58.26 354 -62 354 C-62 353.34 -62 352.68 -62 352 C-62.969375 352.020625 -63.93875 352.04125 -64.9375 352.0625 C-68 352 -68 352 -69 351 C-71.32817964 350.63239269 -73.6618385 350.29758419 -76 350 C-76 349.34 -76 348.68 -76 348 C-77.65 348 -79.3 348 -81 348 C-81 347.34 -81 346.68 -81 346 C-82.98 346 -84.96 346 -87 346 C-87 345.34 -87 344.68 -87 344 C-89.97 343.67 -92.94 343.34 -96 343 C-96 342.34 -96 341.68 -96 341 C-96.515625 340.896875 -97.03125 340.79375 -97.5625 340.6875 C-100.86026435 339.75736134 -103.86633332 338.38604488 -107 337 C-107 336.34 -107 335.68 -107 335 C-108.32 335 -109.64 335 -111 335 C-111 334.34 -111 333.68 -111 333 C-111.61875 332.855625 -112.2375 332.71125 -112.875 332.5625 C-115 332 -115 332 -117 331 C-117 330.34 -117 329.68 -117 329 C-119.31 328.67 -121.62 328.34 -124 328 C-124.33 326.68 -124.66 325.36 -125 324 C-125.99 324 -126.98 324 -128 324 C-128 323.34 -128 322.68 -128 322 C-128.99 322 -129.98 322 -131 322 C-131 321.34 -131 320.68 -131 320 C-132.98 319.67 -134.96 319.34 -137 319 C-137 318.34 -137 317.68 -137 317 C-137.66 317 -138.32 317 -139 317 C-139.33 315.68 -139.66 314.36 -140 313 C-140.66 313 -141.32 313 -142 313 C-142 312.34 -142 311.68 -142 311 C-142.57975586 310.74476563 -143.15951172 310.48953125 -143.75683594 310.2265625 C-146.23015312 308.87415223 -147.89602109 307.36267476 -149.890625 305.375 C-150.59960938 304.66859375 -151.30859375 303.9621875 -152.0390625 303.234375 C-152.76867187 302.49703125 -153.49828125 301.7596875 -154.25 301 C-154.99507813 300.26265625 -155.74015625 299.5253125 -156.5078125 298.765625 C-157.21164062 298.05921875 -157.91546875 297.3528125 -158.640625 296.625 C-159.60790527 295.65433594 -159.60790527 295.65433594 -160.59472656 294.6640625 C-162 293 -162 293 -162 291 C-162.66 291 -163.32 291 -164 291 C-165.02137457 289.34634594 -166.01612294 287.67623498 -167 286 C-169.97869621 281.91641378 -169.97869621 281.91641378 -174 279 C-174.625 275.9375 -174.625 275.9375 -175 273 C-175.66 273 -176.32 273 -177 273 C-177.66 271.02 -178.32 269.04 -179 267 C-179.66 267 -180.32 267 -181 267 C-181.84266711 265.25447527 -182.67380038 263.5033792 -183.5 261.75 C-183.9640625 260.77546875 -184.428125 259.8009375 -184.90625 258.796875 C-186 256 -186 256 -186 252 C-186.66 252 -187.32 252 -188 252 C-189.49821059 248.62902617 -190 246.79557881 -190 243 C-190.66 243 -191.32 243 -192 243 C-192.10957031 242.43152344 -192.21914062 241.86304688 -192.33203125 241.27734375 C-193.1255501 237.41297146 -193.99259459 234.01718055 -195.5625 230.375 C-197.05842232 226.86283456 -197.54753043 223.77057973 -198 220 C-198.33 219.67 -198.66 219.34 -199 219 C-199.04092937 216.66702567 -199.04241723 214.33294775 -199 212 C-199.66 212 -200.32 212 -201 212 C-203.57966984 201.27061968 -203.27131703 190.45974045 -203.20581055 179.49633789 C-203.1873245 176.28198477 -203.18530286 173.06791685 -203.18554688 169.85351562 C-203.18063908 167.81510165 -203.17481402 165.77668964 -203.16796875 163.73828125 C-203.16685593 162.77489334 -203.1657431 161.81150543 -203.16459656 160.81892395 C-203.15502678 159.49570381 -203.15502678 159.49570381 -203.14526367 158.14575195 C-203.14145187 157.36698196 -203.13764008 156.58821198 -203.13371277 155.7858429 C-203 154 -203 154 -202 153 C-201.76712992 151.31816052 -201.58735834 149.6287584 -201.4375 147.9375 C-201.35371094 147.01839844 -201.26992187 146.09929687 -201.18359375 145.15234375 C-201.12300781 144.44207031 -201.06242188 143.73179687 -201 143 C-200.34 143 -199.68 143 -199 143 C-199.0928125 141.515 -199.0928125 141.515 -199.1875 140 C-199.19468683 136.39939982 -198.18622842 133.66104412 -196.80078125 130.33203125 C-195.21402874 125.71109834 -194.68331259 120.82338296 -194 116 C-193.34 116 -192.68 116 -192 116 C-192 114.68 -192 113.36 -192 112 C-191.34 112 -190.68 112 -190 112 C-190 110.35 -190 108.7 -190 107 C-189.34 107 -188.68 107 -188 107 C-188 105.68 -188 104.36 -188 103 C-187.34 103 -186.68 103 -186 103 C-186 101.68 -186 100.36 -186 99 C-185.34 99 -184.68 99 -184 99 C-183.67 96.69 -183.34 94.38 -183 92 C-182.34 92 -181.68 92 -181 92 C-180.855625 91.38125 -180.71125 90.7625 -180.5625 90.125 C-180 88 -180 88 -179 86 C-178.34 86 -177.68 86 -177 86 C-176.67 84.02 -176.34 82.04 -176 80 C-175.34 80 -174.68 80 -174 80 C-174 79.01 -174 78.02 -174 77 C-173.34 77 -172.68 77 -172 77 C-172 76.34 -172 75.68 -172 75 C-171.34 75 -170.68 75 -170 75 C-170 74.01 -170 73.02 -170 72 C-169.34 72 -168.68 72 -168 72 C-167.34 70.68 -166.68 69.36 -166 68 C-165.34 68 -164.68 68 -164 68 C-163.34 66.35 -162.68 64.7 -162 63 C-161.34 63 -160.68 63 -160 63 C-159.9175 62.38125 -159.835 61.7625 -159.75 61.125 C-159 59 -159 59 -156.9375 57.75 C-156.298125 57.5025 -155.65875 57.255 -155 57 C-155 56.34 -155 55.68 -155 55 C-154.34 55 -153.68 55 -153 55 C-152.773125 54.443125 -152.54625 53.88625 -152.3125 53.3125 C-150.62449964 50.33840412 -148.53323483 48.27991135 -146 46 C-145.34 46 -144.68 46 -144 46 C-144 45.34 -144 44.68 -144 44 C-143.34 44 -142.68 44 -142 44 C-142 43.34 -142 42.68 -142 42 C-141.34 42 -140.68 42 -140 42 C-140 41.34 -140 40.68 -140 40 C-135.61538462 37 -135.61538462 37 -133 37 C-133 36.34 -133 35.68 -133 35 C-132.34 35 -131.68 35 -131 35 C-131 34.34 -131 33.68 -131 33 C-130.01 33 -129.02 33 -128 33 C-128 32.34 -128 31.68 -128 31 C-124.63316085 28.56839395 -123.26649636 28 -119 28 C-119 27.34 -119 26.68 -119 26 C-118.01 26 -117.02 26 -116 26 C-116 25.34 -116 24.68 -116 24 C-114.02 23.67 -112.04 23.34 -110 23 C-110 22.34 -110 21.68 -110 21 C-109.01 21 -108.02 21 -107 21 C-107 20.34 -107 19.68 -107 19 C-105.68 19 -104.36 19 -103 19 C-103 18.34 -103 17.68 -103 17 C-101.75539217 16.32332002 -100.50403104 15.65905281 -99.25 15 C-98.20585937 14.443125 -98.20585937 14.443125 -97.140625 13.875 C-95 13 -95 13 -91 13 C-91 12.34 -91 11.68 -91 11 C-89.68 11 -88.36 11 -87 11 C-87 10.34 -87 9.68 -87 9 C-86.28714844 8.89042969 -85.57429688 8.78085937 -84.83984375 8.66796875 C-78.40452944 7.64390582 -78.40452944 7.64390582 -72.3125 5.4375 C-68.4149851 3.74612561 -65.20647065 3.43515214 -61 3 C-60.67 2.67 -60.34 2.34 -60 2 C-56.5 1.5 -56.5 1.5 -53 1 C-52.67 0.67 -52.34 0.34 -52 0 C-34.93041638 -2.26290716 -17.11019388 -1.37273762 0 0 Z " fill="#D64838" transform="translate(414,363)"/>
<path d="M0 0 C2.64 0 5.28 0 8 0 C8 0.99 8 1.98 8 3 C8.86625 3.103125 9.7325 3.20625 10.625 3.3125 C14.16683123 4.03398414 16.84312042 5.27123261 20 7 C20 7.66 20 8.32 20 9 C20.66 9 21.32 9 22 9 C22 9.66 22 10.32 22 11 C22.86625 11.1546875 22.86625 11.1546875 23.75 11.3125 C26.35661158 12.10896465 27.9735311 13.19065277 30 15 C30 15.66 30 16.32 30 17 C30.86625 17.268125 31.7325 17.53625 32.625 17.8125 C35.91791964 18.97111987 38.91127875 20.38209839 42 22 C42 22.66 42 23.32 42 24 C42.83337891 24.13921875 42.83337891 24.13921875 43.68359375 24.28125 C46.61071234 25.1894959 48.59810871 26.68608907 51.0625 28.5 C53.79098097 30.5022537 55.7783531 31.9261177 59 33 C59 33.66 59 34.32 59 35 C59.66 35 60.32 35 61 35 C61 35.66 61 36.32 61 37 C61.99 37 62.98 37 64 37 C64 37.66 64 38.32 64 39 C64.66 39 65.32 39 66 39 C66 39.66 66 40.32 66 41 C66.99 41 67.98 41 69 41 C69 41.66 69 42.32 69 43 C69.66 43 70.32 43 71 43 C71 43.66 71 44.32 71 45 C72.051875 45.0825 73.10375 45.165 74.1875 45.25 C78.28732127 46.05652222 80.07721678 47.07721678 83 50 C83 50.66 83 51.32 83 52 C83.99 52 84.98 52 86 52 C86 52.66 86 53.32 86 54 C86.66 54 87.32 54 88 54 C88 54.66 88 55.32 88 56 C90.31 56.33 92.62 56.66 95 57 C95 57.66 95 58.32 95 59 C96.175625 59.433125 96.175625 59.433125 97.375 59.875 C100 61 100 61 102 63 C104.06874034 63.6425235 104.06874034 63.6425235 106 64 C106 64.66 106 65.32 106 66 C106.66 66 107.32 66 108 66 C108 66.66 108 67.32 108 68 C108.87978516 68.17015625 108.87978516 68.17015625 109.77734375 68.34375 C112.17304987 69.05109381 113.59318412 69.98446384 115.5625 71.5 C117.82900642 73.23647708 119.22472293 74.07490764 122 75 C122 75.66 122 76.32 122 77 C122.66 77 123.32 77 124 77 C124 77.66 124 78.32 124 79 C124.66 79 125.32 79 126 79 C126 79.66 126 80.32 126 81 C126.66 81 127.32 81 128 81 C128.92126801 91.69694524 128.92126801 91.69694524 126.69921875 94.83984375 C125.0625 96.125 125.0625 96.125 122 98 C121.67 98.66 121.34 99.32 121 100 C115.69230769 103 115.69230769 103 112 103 C112 103.66 112 104.32 112 105 C107.64705882 109 107.64705882 109 104 109 C104 109.66 104 110.32 104 111 C100.3874638 112.84827434 96.7910119 114.55049545 93 116 C93 116.66 93 117.32 93 118 C90.09432866 120.01782732 87.48330216 121.35494404 84 122 C84 122.66 84 123.32 84 124 C83.34 124 82.68 124 82 124 C82 124.66 82 125.32 82 126 C79.02588876 127.23921302 76.14737182 128.30058404 73 129 C73 129.66 73 130.32 73 131 C72.34 131 71.68 131 71 131 C71 131.66 71 132.32 71 133 C70.01 133 69.02 133 68 133 C68 133.66 68 134.32 68 135 C67.05125 135.0825 66.1025 135.165 65.125 135.25 C64.09375 135.4975 63.0625 135.745 62 136 C61.3162955 137.32467746 60.65035814 138.65863633 60 140 C56.875 141.25 56.875 141.25 54 142 C54 142.66 54 143.32 54 144 C53.01 144 52.02 144 51 144 C51 144.66 51 145.32 51 146 C50.05125 146.45375 49.1025 146.9075 48.125 147.375 C44.99686321 148.80238254 44.99686321 148.80238254 43 151 C42.01 151 41.02 151 40 151 C40 151.66 40 152.32 40 153 C39.01 153 38.02 153 37 153 C37 153.66 37 154.32 37 155 C36.34 155 35.68 155 35 155 C35 155.66 35 156.32 35 157 C33.02 157.33 31.04 157.66 29 158 C29 158.66 29 159.32 29 160 C26.82421875 161.43359375 26.82421875 161.43359375 24 163 C22.2699584 164.01934985 20.5407834 165.040172 18.8125 166.0625 C17.95269531 166.56910156 17.09289062 167.07570313 16.20703125 167.59765625 C13.91028588 168.94464647 13.91028588 168.94464647 12 171 C11.01 171 10.02 171 9 171 C9 171.66 9 172.32 9 173 C7.56260487 173.02712066 6.12506137 173.04645067 4.6875 173.0625 C3.88699219 173.07410156 3.08648437 173.08570313 2.26171875 173.09765625 C0 173 0 173 -3 172 C-3 171.34 -3 170.68 -3 170 C-3.66 170 -4.32 170 -5 170 C-5 169.34 -5 168.68 -5 168 C-5.66 168 -6.32 168 -7 168 C-7 114.54 -7 61.08 -7 6 C-6.34 6 -5.68 6 -5 6 C-5 5.34 -5 4.68 -5 4 C-4.34 4 -3.68 4 -3 4 C-3 3.34 -3 2.68 -3 2 C-2.01 2 -1.02 2 0 2 C0 1.34 0 0.68 0 0 Z " fill="#FDF9F0" transform="translate(342,454)"/>
<path d="M0 0 C0.33 0 0.66 0 1 0 C1 53.46 1 106.92 1 162 C1.66 162 2.32 162 3 162 C3 162.66 3 163.32 3 164 C1.68 163.67 0.36 163.34 -1 163 C-2.07475643 159.50002267 -2.12836007 156.26699042 -2.13371277 152.61680603 C-2.13797775 151.30303482 -2.14224274 149.98926361 -2.14663696 148.63568115 C-2.14628746 147.18151852 -2.14582594 145.72735592 -2.14526367 144.27319336 C-2.14825605 142.7405438 -2.15165877 141.207895 -2.15544128 139.67524719 C-2.16427523 135.51425427 -2.16661908 131.35328192 -2.16725707 127.19228053 C-2.16820653 123.72035681 -2.17188506 120.24843789 -2.17542917 116.77651602 C-2.18357064 108.58855704 -2.1860136 100.40060905 -2.18530273 92.21264648 C-2.1847013 83.75906603 -2.19526685 75.30554925 -2.2110464 66.85198492 C-2.22410632 59.59756193 -2.22948732 52.34315981 -2.22884732 45.08872515 C-2.22859198 40.75429169 -2.2314637 36.41991487 -2.24202538 32.08549309 C-2.25168091 28.01188453 -2.25180314 23.9383871 -2.24450874 19.8647747 C-2.24345987 18.36796405 -2.24584361 16.87114657 -2.2518692 15.37434769 C-2.25954884 13.33498244 -2.25376328 11.29557959 -2.24723816 9.25621033 C-2.24778293 8.11377334 -2.24832769 6.97133635 -2.24888897 5.79428005 C-2 3 -2 3 0 0 Z " fill="#D53A20" transform="translate(334,460)"/>
<path d="M0 0 C3.875 0.875 3.875 0.875 5 2 C5.13239799 4.66545103 5.19984863 7.30566247 5.22460938 9.97290039 C5.23599945 10.80875671 5.24738953 11.64461304 5.25912476 12.50579834 C5.36997561 21.2721949 5.41725031 30.03944633 5.45996094 38.80639648 C5.48220999 42.96502098 5.5239337 47.12274437 5.58300781 51.28100586 C5.65418698 56.3008217 5.69080747 61.31979139 5.70307922 66.34008598 C5.713468 68.2510551 5.73586425 70.16199926 5.77067566 72.07267952 C6.06156291 88.91493815 6.06156291 88.91493815 1.58007812 94.23608398 C-1.4580458 97 -1.4580458 97 -4 97 C-4 95.68 -4 94.36 -4 93 C-3.34 93 -2.68 93 -2 93 C-2 92.34 -2 91.68 -2 91 C-1.01 91 -0.02 91 1 91 C1 90.34 1 89.68 1 89 C1.66 89 2.32 89 3 89 C3 60.29 3 31.58 3 2 C2.01 1.67 1.02 1.34 0 1 C0 0.67 0 0.34 0 0 Z " fill="#D21A10" transform="translate(126,245)"/>
<path d="M0 0 C0.66 0 1.32 0 2 0 C2 29.37 2 58.74 2 89 C1.34 89 0.68 89 0 89 C0 89.99 0 90.98 0 92 C-0.66 91.67 -1.32 91.34 -2 91 C-1.83923477 90.34953201 -1.67846954 89.69906403 -1.51283264 89.02888489 C-0.86349146 85.19375519 -0.82306689 81.41575597 -0.79467773 77.5378418 C-0.78477814 76.6983046 -0.77487854 75.8587674 -0.76467896 74.99378967 C-0.73318402 72.22896103 -0.70835415 69.46411522 -0.68359375 66.69921875 C-0.66301385 64.77821923 -0.6420171 62.85722412 -0.62062073 60.93623352 C-0.56550708 55.88764027 -0.51605068 50.83900687 -0.46777344 45.79034424 C-0.41748013 40.63558391 -0.36183497 35.48088165 -0.30664062 30.32617188 C-0.19919005 20.21749757 -0.09771612 10.10877277 0 0 Z " fill="#D40600" transform="translate(557,290)"/>
<path d="M0 0 C0.66 0 1.32 0 2 0 C2 23.76 2 47.52 2 72 C2.66 72 3.32 72 4 72 C4 72.66 4 73.32 4 74 C1.69 73.67 -0.62 73.34 -3 73 C-2.01 72.01 -2.01 72.01 -1 71 C-0.66679424 67.92356874 -0.66679424 67.92356874 -0.68115234 64.25537109 C-0.67110672 63.56257553 -0.6610611 62.86977997 -0.65071106 62.1559906 C-0.61977447 59.86181482 -0.60281524 57.56775627 -0.5859375 55.2734375 C-0.56723423 53.68444808 -0.54766146 52.09546867 -0.5272522 50.50650024 C-0.47583591 46.32098282 -0.43626123 42.13543317 -0.39910889 37.94976807 C-0.35912857 33.67997197 -0.30800907 29.41031105 -0.2578125 25.140625 C-0.16094085 16.76050887 -0.07657228 8.38032607 0 0 Z " fill="#D11C10" transform="translate(157,262)"/>
<path d="M0 0 C1.51400391 0.01740234 1.51400391 0.01740234 3.05859375 0.03515625 C4.07050781 0.04417969 5.08242188 0.05320312 6.125 0.0625 C6.90746094 0.07410156 7.68992187 0.08570313 8.49609375 0.09765625 C8.49609375 0.42765625 8.49609375 0.75765625 8.49609375 1.09765625 C6.18609375 1.09765625 3.87609375 1.09765625 1.49609375 1.09765625 C1.49609375 1.75765625 1.49609375 2.41765625 1.49609375 3.09765625 C0.64144531 3.15824219 -0.21320313 3.21882812 -1.09375 3.28125 C-2.19847656 3.36503906 -3.30320312 3.44882812 -4.44140625 3.53515625 C-5.54355469 3.61636719 -6.64570313 3.69757812 -7.78125 3.78125 C-10.41500528 3.80183709 -10.41500528 3.80183709 -11.50390625 5.09765625 C-14.60641826 5.1863976 -17.68658745 5.2128408 -20.7890625 5.1953125 C-21.71988144 5.19389755 -22.65070038 5.1924826 -23.60972595 5.19102478 C-26.59531816 5.18540797 -29.58083654 5.17285265 -32.56640625 5.16015625 C-34.58528538 5.15514341 -36.60416568 5.15058013 -38.62304688 5.14648438 C-43.58336197 5.13543308 -48.54362157 5.1181572 -53.50390625 5.09765625 C-53.50390625 4.43765625 -53.50390625 3.77765625 -53.50390625 3.09765625 C-51.87146973 3.06007202 -51.87146973 3.06007202 -50.20605469 3.02172852 C-46.11319035 2.92653965 -42.02045253 2.8266057 -37.92773438 2.7253418 C-36.16669707 2.68240928 -34.40562917 2.64071128 -32.64453125 2.6003418 C-21.73589588 2.34931922 -10.26361337 0.40029693 0 0 Z " fill="#D2180E" transform="translate(421.50390625,712.90234375)"/>
<path d="M0 0 C5.0994798 0.61811876 7.02282239 2.15589851 12 5 C12 32.06 12 59.12 12 87 C11.67 87 11.34 87 11 87 C10.67 62.58 10.34 38.16 10 13 C9.67 13 9.34 13 9 13 C9 10.36 9 7.72 9 5 C6.03 4.505 6.03 4.505 3 4 C3 3.01 3 2.02 3 1 C2.01 0.67 1.02 0.34 0 0 Z " fill="#D33727" transform="translate(210,284)"/>
<path d="M0 0 C-1 1 -1 1 -4.5625 1.0625 C-5.696875 1.041875 -6.83125 1.02125 -8 1 C-8 1.66 -8 2.32 -8 3 C-10.97 3 -13.94 3 -17 3 C-17 3.66 -17 4.32 -17 5 C-34.49 5 -51.98 5 -70 5 C-70 4.34 -70 3.68 -70 3 C-69.41340103 3.00222061 -68.82680206 3.00444122 -68.22242737 3.00672913 C-62.13974616 3.0287821 -56.05707623 3.04390664 -49.97436523 3.05493164 C-47.70157409 3.05997325 -45.4287862 3.06680637 -43.15600586 3.07543945 C-39.89696449 3.08751261 -36.63796583 3.09322987 -33.37890625 3.09765625 C-32.35599991 3.10281754 -31.33309357 3.10797882 -30.27919006 3.11329651 C-29.33829025 3.11337204 -28.39739044 3.11344757 -27.42797852 3.11352539 C-26.59524918 3.115746 -25.76251984 3.11796661 -24.90455627 3.12025452 C-22.98966726 3.21004832 -22.98966726 3.21004832 -22 2 C-19.98035801 1.92755947 -17.95832876 1.91622812 -15.9375 1.9375 C-14.28041016 1.95103516 -14.28041016 1.95103516 -12.58984375 1.96484375 C-11.73519531 1.97644531 -10.88054687 1.98804688 -10 2 C-10 1.34 -10 0.68 -10 0 C-2.25 -1.125 -2.25 -1.125 0 0 Z " fill="#E49C94" transform="translate(433,714)"/>
<path d="M0 0 C15.47991424 -0.22568003 30.64555738 -0.09463773 46 2 C46 2.66 46 3.32 46 4 C47.98 4 49.96 4 52 4 C52 4.33 52 4.66 52 5 C50.52093108 5.02689216 49.04172517 5.04634621 47.5625 5.0625 C46.32693359 5.07990234 46.32693359 5.07990234 45.06640625 5.09765625 C43 5 43 5 42 4 C39.10067993 3.80712021 36.21535914 3.66897448 33.3125 3.5625 C22.17043414 3.08921775 11.09612736 2.09337916 0 1 C0 0.67 0 0.34 0 0 Z " fill="#D43728" transform="translate(374,322)"/>
<path d="M0 0 C-0.66 0 -1.32 0 -2 0 C-2 0.66 -2 1.32 -2 2 C-3.32 2 -4.64 2 -6 2 C-6 2.66 -6 3.32 -6 4 C-7.32 4 -8.64 4 -10 4 C-10 4.66 -10 5.32 -10 6 C-12.90600261 7.25664978 -14.79604584 8 -18 8 C-18 8.66 -18 9.32 -18 10 C-22.22949995 12.41685712 -25.12335991 13.34833144 -30 13 C-30 13.66 -30 14.32 -30 15 C-30.99 15 -31.98 15 -33 15 C-33 15.66 -33 16.32 -33 17 C-34.32 17 -35.64 17 -37 17 C-37 17.66 -37 18.32 -37 19 C-38.98 19.33 -40.96 19.66 -43 20 C-43 19.34 -43 18.68 -43 18 C-41.68 18 -40.36 18 -39 18 C-39 17.34 -39 16.68 -39 16 C-35.91190305 14.23537317 -34.76687864 14 -31 14 C-31 13.34 -31 12.68 -31 12 C-29.68 12 -28.36 12 -27 12 C-27 11.34 -27 10.68 -27 10 C-24.36 9.67 -21.72 9.34 -19 9 C-19 8.34 -19 7.68 -19 7 C-16.35261084 5.5393715 -15.10551666 5 -12 5 C-12 4.34 -12 3.68 -12 3 C-10.68 3 -9.36 3 -8 3 C-8 2.34 -8 1.68 -8 1 C-3.375 -1.125 -3.375 -1.125 0 0 Z " fill="#EEC4BF" transform="translate(639,253)"/>
<path d="M0 0 C5.67830078 -0.02464705 11.35657069 -0.04283462 17.03491211 -0.05493164 C18.96818585 -0.05997256 20.90145576 -0.06680519 22.8347168 -0.07543945 C25.60726872 -0.08751565 28.37977041 -0.09323057 31.15234375 -0.09765625 C32.45702858 -0.10539818 32.45702858 -0.10539818 33.78807068 -0.11329651 C35.85905814 -0.11349185 37.92994324 -0.06208168 40 0 C40.495 0.495 40.495 0.495 41 1 C42.49496842 1.20699563 43.9966592 1.36679259 45.5 1.5 C49.88888889 1.88888889 49.88888889 1.88888889 51 3 C53.32817964 3.36760731 55.6618385 3.70241581 58 4 C58 4.33 58 4.66 58 5 C55.03 5 52.06 5 49 5 C49 4.34 49 3.68 49 3 C48.21753906 3.01160156 47.43507813 3.02320313 46.62890625 3.03515625 C45.61699219 3.04417969 44.60507812 3.05320312 43.5625 3.0625 C42.55316406 3.07410156 41.54382813 3.08570313 40.50390625 3.09765625 C38 3 38 3 37 2 C34.26298822 1.83989519 31.5483241 1.74053172 28.80859375 1.68359375 C27.57883568 1.6524221 27.57883568 1.6524221 26.32423401 1.62062073 C23.69541099 1.55503506 21.06648496 1.49619874 18.4375 1.4375 C16.65949439 1.39432333 14.88149935 1.35070933 13.10351562 1.30664062 C8.73578366 1.19934457 4.36794773 1.09810296 0 1 C0 0.67 0 0.34 0 0 Z " fill="#E18278" transform="translate(376,325)"/>
<path d="M0 0 C0.99 0 1.98 0 3 0 C3 1.32 3 2.64 3 4 C2.34 4 1.68 4 1 4 C0.93941406 4.71027344 0.87882812 5.42054688 0.81640625 6.15234375 C0.69072266 7.53099609 0.69072266 7.53099609 0.5625 8.9375 C0.48128906 9.85402344 0.40007812 10.77054687 0.31640625 11.71484375 C0 14 0 14 -1 15 C-1.23427778 17.01594582 -1.41336124 19.038474 -1.5625 21.0625 C-1.64628906 22.16722656 -1.73007813 23.27195312 -1.81640625 24.41015625 C-1.87699219 25.26480469 -1.93757813 26.11945313 -2 27 C-2.66 27 -3.32 27 -4 27 C-4.52935837 17.1921658 -3.42739837 9.21113311 0 0 Z " fill="#D22416" transform="translate(113,426)"/>
<path d="M0 0 C2.31 0 4.62 0 7 0 C7 0.33 7 0.66 7 1 C5.02 1 3.04 1 1 1 C1 1.66 1 2.32 1 3 C0.31292969 3.25394531 -0.37414062 3.50789063 -1.08203125 3.76953125 C-1.98308594 4.11371094 -2.88414062 4.45789063 -3.8125 4.8125 C-4.70582031 5.14894531 -5.59914063 5.48539062 -6.51953125 5.83203125 C-8.91924072 6.96197319 -10.28423353 8.01062293 -12 10 C-12.99 9.34 -13.98 8.68 -15 8 C-17.5502617 8.41341709 -17.5502617 8.41341709 -20.1875 9.375 C-21.08855469 9.67148437 -21.98960937 9.96796875 -22.91796875 10.2734375 C-23.60503906 10.51320313 -24.29210937 10.75296875 -25 11 C-25.33 10.34 -25.66 9.68 -26 9 C-24.35 9 -22.7 9 -21 9 C-21 8.34 -21 7.68 -21 7 C-20.12988281 6.83564453 -20.12988281 6.83564453 -19.2421875 6.66796875 C-15.44816743 5.89789537 -12.28602795 5.14581817 -8.8125 3.375 C-5.63242987 1.82029905 -3.4939931 1.75042906 0 2 C0 1.34 0 0.68 0 0 Z " fill="#EDB9B2" transform="translate(334,331)"/>
<path d="M0 0 C0.33 0 0.66 0 1 0 C1 1.65 1 3.3 1 5 C0.34 5 -0.32 5 -1 5 C-0.91227545 6.89666526 -0.80408699 8.79238993 -0.6875 10.6875 C-0.62949219 11.74324219 -0.57148437 12.79898438 -0.51171875 13.88671875 C0.03993133 17.24294101 1.15872785 19.18132333 3 22 C3 22.66 3 23.32 3 24 C1.109375 23.72265625 1.109375 23.72265625 -1 23 C-3.73974171 17.42266865 -4.32987261 13.15762212 -4 7 C-3.34 7 -2.68 7 -2 7 C-1.855625 6.21625 -1.71125 5.4325 -1.5625 4.625 C-1 2 -1 2 0 0 Z " fill="#D33C2A" transform="translate(93,206)"/>
<path d="M0 0 C0.66 0 1.32 0 2 0 C0.66718426 5.45242805 -1.44936961 10.25307661 -3.82421875 15.33203125 C-5.2295434 18.52085763 -6.17392239 21.62059159 -7 25 C-7.66 25 -8.32 25 -9 25 C-9 23.35 -9 21.7 -9 20 C-8.34 20 -7.68 20 -7 20 C-6.67 16.7 -6.34 13.4 -6 10 C-5.34 10 -4.68 10 -4 10 C-4 8.68 -4 7.36 -4 6 C-3.34 6 -2.68 6 -2 6 C-2 4.68 -2 3.36 -2 2 C-1.34 2 -0.68 2 0 2 C0 1.34 0 0.68 0 0 Z " fill="#D43224" transform="translate(230,460)"/>
<path d="M0 0 C0 3.57449447 -1.11991692 5.0454604 -3.43359375 7.6953125 C-6.10415819 9.91967291 -8.62514687 10 -12 10 C-12.99 9.34 -13.98 8.68 -15 8 C-17.11280345 7.36707617 -17.11280345 7.36707617 -19 7 C-18.67 6.34 -18.34 5.68 -18 5 C-14.37 5.33 -10.74 5.66 -7 6 C-7 5.34 -7 4.68 -7 4 C-6.21625 3.71125 -5.4325 3.4225 -4.625 3.125 C-1.90328368 2.15087746 -1.90328368 2.15087746 0 0 Z " fill="#FBF2F0" transform="translate(557,382)"/>
<path d="M0 0 C0.33 0 0.66 0 1 0 C1 1.65 1 3.3 1 5 C0.34 5 -0.32 5 -1 5 C-1.33 7.64 -1.66 10.28 -2 13 C-2.66 13 -3.32 13 -4 13 C-4 13.99 -4 14.98 -4 16 C-4.66 16 -5.32 16 -6 16 C-5.34 11.71 -4.68 7.42 -4 3 C-2.68 2.67 -1.36 2.34 0 2 C0 1.34 0 0.68 0 0 Z " fill="#D13122" transform="translate(554,603)"/>
<path d="M0 0 C0.33 0 0.66 0 1 0 C1 1.65 1 3.3 1 5 C0.34 5 -0.32 5 -1 5 C-0.83242187 5.61746094 -0.66484375 6.23492187 -0.4921875 6.87109375 C0.96560879 12.93294287 1.41423358 18.11195255 -1 24 C-1.66 24.33 -2.32 24.66 -3 25 C-2.85769192 23.58297487 -2.71099254 22.1663904 -2.5625 20.75 C-2.48128906 19.96109375 -2.40007812 19.1721875 -2.31640625 18.359375 C-2.02365007 16.17635361 -1.57935581 14.1226818 -1 12 C-1.66 12 -2.32 12 -3 12 C-2.67 9.36 -2.34 6.72 -2 4 C-1.34 4 -0.68 4 0 4 C0 2.68 0 1.36 0 0 Z " fill="#D64B3D" transform="translate(222,475)"/>
<path d="M0 0 C2 3 2 3 1.875 5 C0.74467946 7.5835898 -0.61175724 8.55258015 -3 10 C-3.66 10 -4.32 10 -5 10 C-4.67 10.99 -4.34 11.98 -4 13 C-4.99 13.99 -5.98 14.98 -7 16 C-7.66 15.67 -8.32 15.34 -9 15 C-8.67 14.01 -8.34 13.02 -8 12 C-7.34 12 -6.68 12 -6 12 C-6 11.01 -6 10.02 -6 9 C-5.34 9 -4.68 9 -4 9 C-3.855625 8.38125 -3.71125 7.7625 -3.5625 7.125 C-3 5 -3 5 -2 3 C-1.34 3 -0.68 3 0 3 C0 2.01 0 1.02 0 0 Z " fill="#F4E1DE" transform="translate(545,627)"/>
<path d="M0 0 C0.99 0.495 0.99 0.495 2 1 C2 3.31 2 5.62 2 8 C2.66 8 3.32 8 4 8 C4 10.31 4 12.62 4 15 C4.66 15 5.32 15 6 15 C6 19.29 6 23.58 6 28 C5.67 28 5.34 28 5 28 C5 24.37 5 20.74 5 17 C4.34 17 3.68 17 3 17 C-0.10465605 11.41161911 -0.10585301 6.24532781 0 0 Z " fill="#DB6F64" transform="translate(174,425)"/>
<path d="M0 0 C0.99 0.33 1.98 0.66 3 1 C3 1.66 3 2.32 3 3 C3.66 3 4.32 3 5 3 C5 3.66 5 4.32 5 5 C5.66 5 6.32 5 7 5 C7 5.66 7 6.32 7 7 C7.66 7 8.32 7 9 7 C9 7.66 9 8.32 9 9 C9.598125 9.268125 10.19625 9.53625 10.8125 9.8125 C12.99847854 10.99917406 14.41332594 12.09599113 16 14 C16 14.66 16 15.32 16 16 C15.34 16 14.68 16 14 16 C14 15.34 14 14.68 14 14 C13.17242187 13.6596875 13.17242187 13.6596875 12.328125 13.3125 C9.31307583 11.61274074 7.18769631 9.45195184 4.75 7 C3.85796875 6.113125 2.9659375 5.22625 2.046875 4.3125 C0 2 0 2 0 0 Z " fill="#D0281A" transform="translate(258,660)"/>
<path d="M0 0 C0.66 0 1.32 0 2 0 C4.25998595 3.59462331 4.20868087 6.56595675 4.125 10.75 C4.10695312 11.92046875 4.08890625 13.0909375 4.0703125 14.296875 C4.03550781 15.63492187 4.03550781 15.63492187 4 17 C3.34 17 2.68 17 2 17 C1.93941406 16.37351562 1.87882813 15.74703125 1.81640625 15.1015625 C1.73261719 14.28429687 1.64882812 13.46703125 1.5625 12.625 C1.48128906 11.81289063 1.40007812 11.00078125 1.31640625 10.1640625 C1.10909886 7.95727195 1.10909886 7.95727195 0 6 C-0.039992 4.00039988 -0.04346799 1.99952758 0 0 Z " fill="#D32719" transform="translate(170,347)"/>
<path d="M0 0 C0.66 0 1.32 0 2 0 C2.62621031 6.88831341 0.35806067 12.58902255 -2 19 C-2.33 19 -2.66 19 -3 19 C-2.67 14.71 -2.34 10.42 -2 6 C-1.34 6 -0.68 6 0 6 C0 4.02 0 2.04 0 0 Z " fill="#D12B18" transform="translate(120,397)"/>
<path d="M0 0 C0.99 0.33 1.98 0.66 3 1 C-2.75300838 5.13036499 -8.77512878 9 -16 9 C-16 8.34 -16 7.68 -16 7 C-8.71428571 3.57142857 -8.71428571 3.57142857 -4 4 C-4 3.34 -4 2.68 -4 2 C-2.68 2 -1.36 2 0 2 C0 1.34 0 0.68 0 0 Z " fill="#D42519" transform="translate(299,107)"/>
<path d="M0 0 C0.66 0.33 1.32 0.66 2 1 C1.67 1.66 1.34 2.32 1 3 C0.01 3 -0.98 3 -2 3 C-2 3.66 -2 4.32 -2 5 C-3.65 5.33 -5.3 5.66 -7 6 C-7 6.66 -7 7.32 -7 8 C-10 10 -10 10 -12.1875 9.625 C-12.785625 9.41875 -13.38375 9.2125 -14 9 C-10.50912907 4.9957657 -8.35048061 3.37328935 -3 3 C-3 2.34 -3 1.68 -3 1 C-2.01 0.67 -1.02 0.34 0 0 Z " fill="#D23224" transform="translate(413,586)"/>
<path d="M0 0 C0.90492188 0.30744141 0.90492188 0.30744141 1.828125 0.62109375 C3.02695312 1.02521484 3.02695312 1.02521484 4.25 1.4375 C5.03890625 1.70433594 5.8278125 1.97117187 6.640625 2.24609375 C8.74821988 2.91954708 10.84753973 3.49150595 13 4 C13 4.66 13 5.32 13 6 C13.7425 5.7525 14.485 5.505 15.25 5.25 C16.1575 5.1675 17.065 5.085 18 5 C20.3125 6.9375 20.3125 6.9375 22 9 C19.50907189 10.24546405 18.58919267 9.7767578 16 9 C16 8.34 16 7.68 16 7 C14.68 7 13.36 7 12 7 C12 6.34 12 5.68 12 5 C10.948125 4.896875 9.89625 4.79375 8.8125 4.6875 C5.12154134 4.02191729 3.00087519 3.18245468 0 1 C0 0.67 0 0.34 0 0 Z " fill="#F1CFCB" transform="translate(400,70)"/>
<path d="M0 0 C1.53617912 4.09647766 0.69045256 7.78823937 0 12 C-0.33 12.33 -0.66 12.66 -1 13 C-1.2165625 14.7325 -1.2165625 14.7325 -1.4375 16.5 C-1.623125 17.655 -1.80875 18.81 -2 20 C-2.66 20.33 -3.32 20.66 -4 21 C-4 16.38 -4 11.76 -4 7 C-3.34 6.67 -2.68 6.34 -2 6 C-1.27306096 4.02111039 -0.60183749 2.02045442 0 0 Z " fill="#DA695C" transform="translate(565,566)"/>
<path d="M0 0 C0 0.33 0 0.66 0 1 C-3.26988299 1.67138621 -6.54105049 2.33629263 -9.8125 3 C-10.74126953 3.19078125 -11.67003906 3.3815625 -12.62695312 3.578125 C-13.9659668 3.84882813 -13.9659668 3.84882813 -15.33203125 4.125 C-16.15421143 4.29257812 -16.9763916 4.46015625 -17.82348633 4.6328125 C-20 5 -20 5 -23 5 C-23 4.34 -23 3.68 -23 3 C-15.69209942 -0.42557839 -7.89657407 -0.14563354 0 0 Z " fill="#D21D12" transform="translate(363,366)"/>
<path d="M0 0 C4.5076467 0.53031138 7.41954788 2.25221116 11 5 C11 5.66 11 6.32 11 7 C11.99 7.33 12.98 7.66 14 8 C13.67 8.99 13.34 9.98 13 11 C11.53515625 9.73046875 10.0703125 8.4609375 8.60546875 7.19140625 C6.89287029 5.79128769 6.89287029 5.79128769 4 5 C2.61423077 3.37667033 1.27358732 1.71275535 0 0 Z " fill="#D4382C" transform="translate(488,395)"/>
<path d="M0 0 C2.475 0.495 2.475 0.495 5 1 C5 1.66 5 2.32 5 3 C5.66 3 6.32 3 7 3 C7 7.95 7 12.9 7 18 C6.67 18 6.34 18 6 18 C6 13.38 6 8.76 6 4 C5.34 4 4.68 4 4 4 C3.67 4.99 3.34 5.98 3 7 C1.5 5.75 1.5 5.75 0 4 C0 2.68 0 1.36 0 0 Z " fill="#DA6458" transform="translate(681,206)"/>
<path d="M0 0 C1.72880982 -0.05449838 3.45812712 -0.09301688 5.1875 -0.125 C6.15042969 -0.14820312 7.11335938 -0.17140625 8.10546875 -0.1953125 C11.12812778 0.0086456 13.26769985 0.73125368 16 2 C16 2.66 16 3.32 16 4 C10.45291384 4.2919519 5.38027025 3.19088986 0 2 C0 1.34 0 0.68 0 0 Z " fill="#D3271A" transform="translate(383,68)"/>
<path d="M0 0 C0.66 0.33 1.32 0.66 2 1 C1.67 1.66 1.34 2.32 1 3 C0.34 3 -0.32 3 -1 3 C-1.433125 3.8971875 -1.433125 3.8971875 -1.875 4.8125 C-3 7 -3 7 -5 10 C-5.99 10 -6.98 10 -8 10 C-8 10.66 -8 11.32 -8 12 C-9.32 11.67 -10.64 11.34 -12 11 C-9.14788651 7.98943576 -6.7563292 5.74400999 -3 4 C-2.67 3.34 -2.34 2.68 -2 2 C-1.34 2 -0.68 2 0 2 C0 1.34 0 0.68 0 0 Z " fill="#F5DFDC" transform="translate(506,674)"/>
<path d="M0 0 C5.94 0 11.88 0 18 0 C18 0.33 18 0.66 18 1 C17.24074219 1.06058594 16.48148437 1.12117188 15.69921875 1.18359375 C14.70535156 1.26738281 13.71148437 1.35117187 12.6875 1.4375 C11.70136719 1.51871094 10.71523438 1.59992188 9.69921875 1.68359375 C6.90624401 1.91812559 6.90624401 1.91812559 4 3 C2.10529184 3.0685495 0.2083166 3.08480372 -1.6875 3.0625 C-2.68136719 3.05347656 -3.67523438 3.04445313 -4.69921875 3.03515625 C-5.83810547 3.01775391 -5.83810547 3.01775391 -7 3 C-7 2.67 -7 2.34 -7 2 C-4.69 2 -2.38 2 0 2 C0 1.34 0 0.68 0 0 Z " fill="#D11910" transform="translate(357,324)"/>
<path d="M0 0 C3.66666667 0 7.33333333 0 11 0 C11.66 1.65 12.32 3.3 13 5 C14.32 5 15.64 5 17 5 C17 5.66 17 6.32 17 7 C17.99 7.33 18.98 7.66 20 8 C18.68 8 17.36 8 16 8 C16 7.34 16 6.68 16 6 C14.68 6 13.36 6 12 6 C12 5.34 12 4.68 12 4 C9.36 3.67 6.72 3.34 4 3 C4 2.34 4 1.68 4 1 C2.68 0.67 1.36 0.34 0 0 Z " fill="#EDBCB6" transform="translate(640,183)"/>
<path d="M0 0 C3.94949704 0.62816498 7.19892028 1.8645529 10.8125 3.5625 C12.27623047 4.24505859 12.27623047 4.24505859 13.76953125 4.94140625 C14.87361328 5.46541016 14.87361328 5.46541016 16 6 C16 6.33 16 6.66 16 7 C9.79011871 6.55643705 5.39459439 5.08467498 0 2 C0 1.34 0 0.68 0 0 Z " fill="#D32A1D" transform="translate(307,698)"/>
<path d="M0 0 C0.33 0 0.66 0 1 0 C2.01286753 8.69980864 2.10621544 17.25492893 2 26 C1.67 26 1.34 26 1 26 C0.93941406 25.39671875 0.87882813 24.7934375 0.81640625 24.171875 C0.73261719 23.37265625 0.64882812 22.5734375 0.5625 21.75 C0.48128906 20.96109375 0.40007812 20.1721875 0.31640625 19.359375 C0.07063996 17.05665224 0.07063996 17.05665224 -0.5625 15.125 C-1.18657085 12.09379875 -0.83912694 9.32363265 -0.5625 6.25 C-0.46066406 5.07953125 -0.35882813 3.9090625 -0.25390625 2.703125 C-0.17011719 1.81109375 -0.08632812 0.9190625 0 0 Z " fill="#D22919" transform="translate(213,547)"/>
<path d="M0 0 C5.95507399 0.3916035 10.62819824 1.37124595 16 4 C16 4.33 16 4.66 16 5 C12.37 4.67 8.74 4.34 5 4 C5 3.34 5 2.68 5 2 C3.35 2 1.7 2 0 2 C0 1.34 0 0.68 0 0 Z " fill="#D32716" transform="translate(443,331)"/>
<path d="M0 0 C1.32 0.33 2.64 0.66 4 1 C3.01 1 2.02 1 1 1 C1 1.66 1 2.32 1 3 C-0.32 3 -1.64 3 -3 3 C-3 3.66 -3 4.32 -3 5 C-3.99 5 -4.98 5 -6 5 C-6 5.66 -6 6.32 -6 7 C-7.32 7 -8.64 7 -10 7 C-10 7.66 -10 8.32 -10 9 C-11.98 9.33 -13.96 9.66 -16 10 C-16 9.34 -16 8.68 -16 8 C-14.68 8 -13.36 8 -12 8 C-12 7.34 -12 6.68 -12 6 C-8.91190305 4.23537317 -7.76687864 4 -4 4 C-4 3.34 -4 2.68 -4 2 C-2.68 2 -1.36 2 0 2 C0 1.34 0 0.68 0 0 Z " fill="#ECB9B2" transform="translate(612,263)"/>
<path d="M0 0 C-4.59727943 3.67782355 -8.97421744 7 -15 7 C-15 6.34 -15 5.68 -15 5 C-12.35261084 3.5393715 -11.10551666 3 -8 3 C-8 2.34 -8 1.68 -8 1 C-5.07175348 0.02391783 -3.04386724 -0.08226668 0 0 Z " fill="#D43528" transform="translate(113,195)"/>
<path d="M0 0 C6.40629424 -0.20852314 11.92972642 -0.1583195 18 2 C18 2.33 18 2.66 18 3 C11.59370576 3.20852314 6.07027358 3.1583195 0 1 C0 0.67 0 0.34 0 0 Z " fill="#D22215" transform="translate(347,713)"/>
<path d="M0 0 C1.32 0 2.64 0 4 0 C2.50902342 3.7952131 0.24299151 5.61042731 -3 8 C-3.66 7.67 -4.32 7.34 -5 7 C-5 6.34 -5 5.68 -5 5 C-4.34 5 -3.68 5 -3 5 C-2.5359375 4.0409375 -2.5359375 4.0409375 -2.0625 3.0625 C-1 1 -1 1 0 0 Z " fill="#D43C31" transform="translate(264,413)"/>
<path d="M0 0 C6.6 0 13.2 0 20 0 C20 0.66 20 1.32 20 2 C21.98 2 23.96 2 26 2 C26 2.33 26 2.66 26 3 C24.52093108 3.02689216 23.04172517 3.04634621 21.5625 3.0625 C20.32693359 3.07990234 20.32693359 3.07990234 19.06640625 3.09765625 C17 3 17 3 16 2 C13.30764224 1.76321284 10.63501844 1.57801975 7.9375 1.4375 C7.17888672 1.39431641 6.42027344 1.35113281 5.63867188 1.30664062 C3.75934562 1.20026367 1.87969756 1.09960066 0 1 C0 0.67 0 0.34 0 0 Z " fill="#D0140B" transform="translate(400,324)"/>
<path d="M0 0 C0.99 0.33 1.98 0.66 3 1 C2.34 1 1.68 1 1 1 C0.67 1.99 0.34 2.98 0 4 C-4.0966411 6.12710211 -7.36233145 7.42160623 -12 7 C-12 6.34 -12 5.68 -12 5 C-10.75336669 4.49166409 -9.50250613 3.99368855 -8.25 3.5 C-7.55390625 3.2215625 -6.8578125 2.943125 -6.140625 2.65625 C-4 2 -4 2 0 2 C0 1.34 0 0.68 0 0 Z " fill="#D22C21" transform="translate(157,173)"/>
<path d="M0 0 C0.66 0 1.32 0 2 0 C1.23529412 4.58823529 1.23529412 4.58823529 0 6.75 C-1.33803481 9.76057832 -1.42826771 12.47112852 -1.625 15.75 C-1.69976562 16.92046875 -1.77453125 18.0909375 -1.8515625 19.296875 C-1.92503906 20.63492187 -1.92503906 20.63492187 -2 22 C-2.33 22 -2.66 22 -3 22 C-3 17.05 -3 12.1 -3 7 C-2.34 7 -1.68 7 -1 7 C-0.67 4.69 -0.34 2.38 0 0 Z " fill="#CF160E" transform="translate(118,343)"/>
<path d="M0 0 C1.98 0 3.96 0 6 0 C6 0.66 6 1.32 6 2 C7.3303125 1.938125 7.3303125 1.938125 8.6875 1.875 C11.97277013 1.99897246 14.05449295 2.61387904 17 4 C17 4.33 17 4.66 17 5 C10.29873464 5.48736475 5.93438408 4.07708804 0 1 C0 0.67 0 0.34 0 0 Z " fill="#D51D0F" transform="translate(432,369)"/>
<path d="M0 0 C0 1.32 0 2.64 0 4 C1.32 4 2.64 4 4 4 C4 4.66 4 5.32 4 6 C4.66 6.33 5.32 6.66 6 7 C4.68 7 3.36 7 2 7 C2 6.34 2 5.68 2 5 C1.01 5 0.02 5 -1 5 C-1 4.34 -1 3.68 -1 3 C-1.5775 2.87625 -2.155 2.7525 -2.75 2.625 C-5.02335767 1.99351176 -6.9253529 1.11141809 -9 0 C-2.25 -1.125 -2.25 -1.125 0 0 Z " fill="#F2D4D2" transform="translate(445,87)"/>
<path d="M0 0 C0.66 0 1.32 0 2 0 C3.45184478 4.53701494 4.23509196 8.18061476 4 13 C1.78631706 10.78631706 0.13447079 9.06983375 -0.265625 5.88671875 C-0.25166986 3.92253213 -0.13286356 1.9597375 0 0 Z " fill="#D42412" transform="translate(168,406)"/>
<path d="M0 0 C0.33 0 0.66 0 1 0 C1.33 6.27 1.66 12.54 2 19 C1.34 19 0.68 19 0 19 C0 19.99 0 20.98 0 22 C-0.66 21.67 -1.32 21.34 -2 21 C-1.84660156 20.34644531 -1.69320312 19.69289063 -1.53515625 19.01953125 C-0.86620406 15.24507841 -0.64592703 11.51094004 -0.4375 7.6875 C-0.39431641 6.94693359 -0.35113281 6.20636719 -0.30664062 5.44335938 C-0.20129568 3.62908536 -0.10021684 1.8145645 0 0 Z " fill="#D11706" transform="translate(557,360)"/>
<path d="M0 0 C6.09781001 -0.22084624 11.21642935 -0.01167675 17 2 C17 2.33 17 2.66 17 3 C10.90218999 3.22084624 5.78357065 3.01167675 0 1 C0 0.67 0 0.34 0 0 Z " fill="#D22014" transform="translate(414,366)"/>
<path d="M0 0 C2.35694954 0.09031574 4.71153582 0.24688128 7.0625 0.4375 C8.35285156 0.53933594 9.64320313 0.64117187 10.97265625 0.74609375 C12.47119141 0.87177734 12.47119141 0.87177734 14 1 C14 1.33 14 1.66 14 2 C10.37 2 6.74 2 3 2 C3 2.66 3 3.32 3 4 C-1.455 4.495 -1.455 4.495 -6 5 C-4.73775586 2.47551173 -3.49988984 2.17182336 -1 1 C-0.67 0.67 -0.34 0.34 0 0 Z " fill="#DA6C61" transform="translate(347,326)"/>
<path d="M0 0 C0.66 0 1.32 0 2 0 C0.71480435 2.86697492 -0.57129254 4.97607712 -3 7 C-3.66 7 -4.32 7 -5 7 C-5 7.66 -5 8.32 -5 9 C-5.66 9 -6.32 9 -7 9 C-7.33 8.01 -7.66 7.02 -8 6 C-7.05125 5.38125 -6.1025 4.7625 -5.125 4.125 C-2.05554891 2.18029031 -2.05554891 2.18029031 0 0 Z " fill="#D22D1F" transform="translate(522,656)"/>
<path d="M0 0 C0.66 0 1.32 0 2 0 C4.59550562 8.65168539 4.59550562 8.65168539 5 13 C4.34 13.66 3.68 14.32 3 15 C1.04848373 13.04848373 1.29031251 9.54831255 0.9375 6.9375 C0.76089844 5.64714844 0.58429687 4.35679687 0.40234375 3.02734375 C0.26957031 2.02832031 0.13679687 1.02929688 0 0 Z " fill="#D22717" transform="translate(557,485)"/>
<path d="M0 0 C-0.99 1.485 -0.99 1.485 -2 3 C-4.32156597 3.40729228 -6.6568787 3.74438677 -9 4 C-9.33 4.33 -9.66 4.66 -10 5 C-11.66617115 5.04063832 -13.33388095 5.042721 -15 5 C-13.68 4.67 -12.36 4.34 -11 4 C-11 3.34 -11 2.68 -11 2 C-7.17010894 0.19769832 -4.21878192 -0.19622241 0 0 Z " fill="#D32011" transform="translate(339,371)"/>
<path d="M0 0 C0 0.33 0 0.66 0 1 C-2.31 1 -4.62 1 -7 1 C-7 1.66 -7 2.32 -7 3 C-10.63 3 -14.26 3 -18 3 C-18 2.67 -18 2.34 -18 2 C-11.92972642 -0.1583195 -6.40629424 -0.20852314 0 0 Z " fill="#D01A0F" transform="translate(430,713)"/>
<path d="M0 0 C1.70884005 1.62339805 3.37446717 3.29319053 5 5 C5 5.66 5 6.32 5 7 C5.66 7 6.32 7 7 7 C7.66 8.65 8.32 10.3 9 12 C7.1875 11.8125 7.1875 11.8125 5 11 C3.375 8.5625 3.375 8.5625 2 6 C1.34 5.34 0.68 4.68 0 4 C0 2.68 0 1.36 0 0 Z " fill="#D32C1C" transform="translate(245,643)"/>
<path d="M0 0 C0.66 0 1.32 0 2 0 C2 0.66 2 1.32 2 2 C3.98 2 5.96 2 8 2 C8 2.33 8 2.66 8 3 C4.04 3.99 0.08 4.98 -4 6 C-4 5.34 -4 4.68 -4 4 C-3.34 4 -2.68 4 -2 4 C-1.34 2.68 -0.68 1.36 0 0 Z " fill="#F2D0CA" transform="translate(336,366)"/>
<path d="M0 0 C-0.66 0.66 -1.32 1.32 -2 2 C-3.32 2 -4.64 2 -6 2 C-6 2.66 -6 3.32 -6 4 C-7.65 4 -9.3 4 -11 4 C-11 3.34 -11 2.68 -11 2 C-10.01 2 -9.02 2 -8 2 C-8 1.34 -8 0.68 -8 0 C-4.94736336 -0.98120464 -3.05263664 -0.98120464 0 0 Z " fill="#D5362B" transform="translate(184,163)"/>
<path d="M0 0 C0.33 0.66 0.66 1.32 1 2 C2.65 2 4.3 2 6 2 C5.38125 2.0825 4.7625 2.165 4.125 2.25 C1.81562433 2.81258459 1.81562433 2.81258459 0.75 5.0625 C0.5025 5.701875 0.255 6.34125 0 7 C-0.103125 6.360625 -0.20625 5.72125 -0.3125 5.0625 C-0.6528125 4.0415625 -0.6528125 4.0415625 -1 3 C-1.99 2.67 -2.98 2.34 -4 2 C-4 2.66 -4 3.32 -4 4 C-5.32 3.67 -6.64 3.34 -8 3 C-7.01 3 -6.02 3 -5 3 C-5 2.34 -5 1.68 -5 1 C-3.35 0.67 -1.7 0.34 0 0 Z " fill="#DA6155" transform="translate(255,127)"/>
<path d="M0 0 C0.33 0.66 0.66 1.32 1 2 C1.66 2.33 2.32 2.66 3 3 C1.68 3.33 0.36 3.66 -1 4 C-1 4.66 -1 5.32 -1 6 C-1.99 6 -2.98 6 -4 6 C-4 6.66 -4 7.32 -4 8 C-4.66 7.67 -5.32 7.34 -6 7 C-5.8125 5.1875 -5.8125 5.1875 -5 3 C-2.4375 1.25 -2.4375 1.25 0 0 Z " fill="#F7E3DF" transform="translate(383,601)"/>
<path d="M0 0 C2.625 0.375 2.625 0.375 5 1 C4.01 1.33 3.02 1.66 2 2 C2 2.66 2 3.32 2 4 C1.34 4 0.68 4 0 4 C0 4.66 0 5.32 0 6 C-1.32 6 -2.64 6 -4 6 C-2.84826645 3.53199953 -1.95216435 1.95216435 0 0 Z " fill="#F6E1DE" transform="translate(424,574)"/>
<path d="M0 0 C0.33 0 0.66 0 1 0 C1.20852314 6.40629424 1.1583195 11.92972642 -1 18 C-1.33 18 -1.66 18 -2 18 C-2 14.7 -2 11.4 -2 8 C-1.34 8 -0.68 8 0 8 C0 5.36 0 2.72 0 0 Z " fill="#D21B0F" transform="translate(216,499)"/>
<path d="M0 0 C3.81684226 1.55500981 6.19195732 4.03595495 9 7 C8.67 7.99 8.34 8.98 8 10 C6.66070495 8.71451591 5.32871357 7.42141845 4 6.125 C2.88625 5.04605469 2.88625 5.04605469 1.75 3.9453125 C0 2 0 2 0 0 Z " fill="#D22B18" transform="translate(515,417)"/>
<path d="M0 0 C0.33 0 0.66 0 1 0 C2.10765663 6.86747109 1.700773 12.26718787 0 19 C-0.33 19 -0.66 19 -1 19 C-1.09507063 12.56688704 -1.15316726 6.34241995 0 0 Z " fill="#D12618" transform="translate(564,557)"/>
<path d="M0 0 C0.33 0 0.66 0 1 0 C2.59295252 7.04321983 3.1710655 12.85650045 2 20 C1.67 20 1.34 20 1 20 C-0.03026944 13.30324864 -0.10152799 6.7685324 0 0 Z " fill="#D22518" transform="translate(563,506)"/>
<path d="M0 0 C2.97 0.495 2.97 0.495 6 1 C5.01 1.33 4.02 1.66 3 2 C3 2.99 3 3.98 3 5 C2.01 5 1.02 5 0 5 C0 5.66 0 6.32 0 7 C-1.32 6.67 -2.64 6.34 -4 6 C-3.01 6 -2.02 6 -1 6 C-0.67 4.02 -0.34 2.04 0 0 Z " fill="#F9EFEC" transform="translate(318,92)"/>
<path d="M0 0 C4.75481646 0.57634139 7.97048212 2.55068521 12 5 C12 5.66 12 6.32 12 7 C9.83125748 6.49396008 8.00032373 6.00016187 6 5 C6 4.34 6 3.68 6 3 C5.38125 2.87625 4.7625 2.7525 4.125 2.625 C2 2 2 2 0 0 Z " fill="#D12113" transform="translate(291,689)"/>
<path d="M0 0 C0.33 0 0.66 0 1 0 C0.67 4.29 0.34 8.58 0 13 C-0.66 13 -1.32 13 -2 13 C-2.16682272 8.07872966 -2.24828052 4.49656104 0 0 Z " fill="#D12117" transform="translate(561,578)"/>
<path d="M0 0 C0.33 0 0.66 0 1 0 C1.33 3.63 1.66 7.26 2 11 C1.34 11 0.68 11 0 11 C-0.33 12.32 -0.66 13.64 -1 15 C-1.09038099 9.84828377 -0.84681133 5.08086796 0 0 Z " fill="#D4372A" transform="translate(116,410)"/>
<path d="M0 0 C2.31 0.33 4.62 0.66 7 1 C7 1.66 7 2.32 7 3 C7.99 3 8.98 3 10 3 C10 3.66 10 4.32 10 5 C6.05140217 4.4359146 3.29120954 3.2568294 0 1 C0 0.67 0 0.34 0 0 Z " fill="#D33329" transform="translate(470,384)"/>
<path d="M0 0 C0.66 0 1.32 0 2 0 C2 4.29 2 8.58 2 13 C0.00203045 10.00304568 -0.34510261 8.82142616 -0.6875 5.375 C-0.77386719 4.57835937 -0.86023438 3.78171875 -0.94921875 2.9609375 C-0.96597656 2.31382812 -0.98273438 1.66671875 -1 1 C-0.67 0.67 -0.34 0.34 0 0 Z " fill="#D32615" transform="translate(162,377)"/>
<path d="M0 0 C0 0.66 0 1.32 0 2 C-0.99 2 -1.98 2 -3 2 C-3 2.66 -3 3.32 -3 4 C-5.64 4.33 -8.28 4.66 -11 5 C-7.56138316 1.21752148 -5.17193751 0 0 0 Z " fill="#D32A1D" transform="translate(603,267)"/>
<path d="M0 0 C0 0.66 0 1.32 0 2 C-0.99 2 -1.98 2 -3 2 C-3 2.66 -3 3.32 -3 4 C-5.64 4.33 -8.28 4.66 -11 5 C-7.29318258 1.89428811 -4.9778821 0 0 0 Z " fill="#D12618" transform="translate(678,232)"/>
<path d="M0 0 C2.3828125 -0.29296875 2.3828125 -0.29296875 5.125 -0.1875 C6.03507812 -0.16042969 6.94515625 -0.13335937 7.8828125 -0.10546875 C8.58148438 -0.07066406 9.28015625 -0.03585938 10 0 C3.60869565 4.26086957 3.60869565 4.26086957 -0.3125 3.625 C-0.869375 3.41875 -1.42625 3.2125 -2 3 C-1.34 2.01 -0.68 1.02 0 0 Z " fill="#F7E7E3" transform="translate(106,192)"/>
<path d="M0 0 C2.475 0.495 2.475 0.495 5 1 C5 1.66 5 2.32 5 3 C6.32 3 7.64 3 9 3 C9 3.66 9 4.32 9 5 C10.32 5 11.64 5 13 5 C12.67 5.66 12.34 6.32 12 7 C9.69 6.67 7.38 6.34 5 6 C4.67 4.68 4.34 3.36 4 2 C2.68 2 1.36 2 0 2 C0 1.34 0 0.68 0 0 Z " fill="#DC6B5F" transform="translate(616,171)"/>
<path d="M0 0 C-6.5 4 -6.5 4 -11 4 C-11 3.34 -11 2.68 -11 2 C-10.01 2 -9.02 2 -8 2 C-8 1.34 -8 0.68 -8 0 C-4.94736336 -0.98120464 -3.05263664 -0.98120464 0 0 Z " fill="#D32515" transform="translate(172,169)"/>
<path d="M0 0 C-3.79692186 2.82561627 -6.18569279 4.56638908 -11 4 C-11 3.34 -11 2.68 -11 2 C-9.68 2 -8.36 2 -7 2 C-7 1.34 -7 0.68 -7 0 C-3.86650268 -1.04449911 -3.01031744 -0.93423645 0 0 Z " fill="#D22314" transform="translate(243,136)"/>
<path d="M0 0 C-0.66 1.32 -1.32 2.64 -2 4 C-4.97 4 -7.94 4 -11 4 C-11 3.34 -11 2.68 -11 2 C-7.17679443 0.57741188 -4.08718695 -0.24042276 0 0 Z " fill="#EEC8C4" transform="translate(449,709)"/>
<path d="M0 0 C0.33 0 0.66 0 1 0 C2.5912689 4.873261 3.21192221 8.80790596 3 14 C2.34 13.67 1.68 13.34 1 13 C-0.29930238 8.71230214 -0.07516774 4.43489655 0 0 Z " fill="#CF1D13" transform="translate(216,575)"/>
<path d="M0 0 C4.99275057 1.27721526 7.57611908 3.17330957 11 7 C7.21472479 6.48847632 5.55891312 5.79154158 3 3 C2.01 2.67 1.02 2.34 0 2 C0 1.34 0 0.68 0 0 Z " fill="#D42819" transform="translate(351,454)"/>
<path d="M0 0 C-0.33 1.98 -0.66 3.96 -1 6 C-1.66 6 -2.32 6 -3 6 C-3.33 7.32 -3.66 8.64 -4 10 C-4.6875 6.6875 -4.6875 6.6875 -5 3 C-3.42599605 0.67647035 -2.82844233 0 0 0 Z " fill="#F7E6E1" transform="translate(231,456)"/>
<path d="M0 0 C0.33 0.99 0.66 1.98 1 3 C-0.8125 5 -0.8125 5 -3 7 C-3.99 7 -4.98 7 -6 7 C-6 6.01 -6 5.02 -6 4 C-5.34 4 -4.68 4 -4 4 C-4 3.34 -4 2.68 -4 2 C-2.68 2 -1.36 2 0 2 C0 1.34 0 0.68 0 0 Z " fill="#D33523" transform="translate(258,422)"/>
<path d="M0 0 C0.99 0.33 1.98 0.66 3 1 C2.34 1 1.68 1 1 1 C1 1.66 1 2.32 1 3 C0.34 3 -0.32 3 -1 3 C-1.33 3.99 -1.66 4.98 -2 6 C-4.0625 6.6875 -4.0625 6.6875 -6 7 C-5.67 5.68 -5.34 4.36 -5 3 C-3.35 2.67 -1.7 2.34 0 2 C0 1.34 0 0.68 0 0 Z " fill="#D32E20" transform="translate(284,397)"/>
<path d="M0 0 C-1.26831693 0.81642254 -2.53975931 1.62799105 -3.8125 2.4375 C-4.87404297 3.11619141 -4.87404297 3.11619141 -5.95703125 3.80859375 C-8 5 -8 5 -11 6 C-11 5.34 -11 4.68 -11 4 C-10.34 4 -9.68 4 -9 4 C-9 3.34 -9 2.68 -9 2 C-8.01 2 -7.02 2 -6 2 C-6 1.34 -6 0.68 -6 0 C-3 -1 -3 -1 0 0 Z " fill="#D22618" transform="translate(304,387)"/>
<path d="M0 0 C0.66 0 1.32 0 2 0 C2 0.99 2 1.98 2 3 C3.32 3.33 4.64 3.66 6 4 C4.68 4 3.36 4 2 4 C2 4.66 2 5.32 2 6 C0.35 6.33 -1.3 6.66 -3 7 C-2.690625 6.401875 -2.38125 5.80375 -2.0625 5.1875 C-0.89790296 2.91043228 -0.89790296 2.91043228 0 0 Z " fill="#F6E3DF" transform="translate(321,370)"/>
<path d="M0 0 C9.41002278 -0.3690205 9.41002278 -0.3690205 14 2 C14 2.33 14 2.66 14 3 C8.80790596 3.21192221 4.873261 2.5912689 0 1 C0 0.67 0 0.34 0 0 Z " fill="#D11B13" transform="translate(428,328)"/>
<path d="M0 0 C4.12751449 0.60698743 7.3321148 2.03810791 11 4 C7.94736336 4.98120464 6.05263664 4.98120464 3 4 C3 3.34 3 2.68 3 2 C2.01 2 1.02 2 0 2 C0 1.34 0 0.68 0 0 Z " fill="#D32517" transform="translate(194,276)"/>
<path d="M0 0 C-3.625 3 -3.625 3 -7 3 C-7 3.66 -7 4.32 -7 5 C-8.32 4.67 -9.64 4.34 -11 4 C-10.01 4 -9.02 4 -8 4 C-7.87625 3.360625 -7.7525 2.72125 -7.625 2.0625 C-7.41875 1.381875 -7.2125 0.70125 -7 0 C-4.3333581 -1.33332095 -2.83319697 -0.67102033 0 0 Z " fill="#F3D8D3" transform="translate(270,120)"/>
<path d="M0 0 C0.99 0.33 1.98 0.66 3 1 C3 1.66 3 2.32 3 3 C2.360625 3.12375 1.72125 3.2475 1.0625 3.375 C0.381875 3.58125 -0.29875 3.7875 -1 4 C-1.33 4.66 -1.66 5.32 -2 6 C-3.65 6 -5.3 6 -7 6 C-5.62209707 3.24419414 -3.62850007 2.51138754 -1 1 C-0.67 0.67 -0.34 0.34 0 0 Z " fill="#D85A4E" transform="translate(368,614)"/>
<path d="M0 0 C1.4540625 0.0309375 1.4540625 0.0309375 2.9375 0.0625 C0.9375 3.0625 0.9375 3.0625 -1.6875 3.75 C-2.47125 3.853125 -3.255 3.95625 -4.0625 4.0625 C-4.0625 4.7225 -4.0625 5.3825 -4.0625 6.0625 C-5.0525 5.7325 -6.0425 5.4025 -7.0625 5.0625 C-6.4025 5.0625 -5.7425 5.0625 -5.0625 5.0625 C-4.8459375 4.1034375 -4.8459375 4.1034375 -4.625 3.125 C-3.73376283 -0.14286963 -3.55757083 0.07260349 0 0 Z " fill="#F1CFCB" transform="translate(400.0625,591.9375)"/>
<path d="M0 0 C0.33 0 0.66 0 1 0 C1 1.65 1 3.3 1 5 C0.34 5 -0.32 5 -1 5 C-0.34 8.3 0.32 11.6 1 15 C0.34 14.67 -0.32 14.34 -1 14 C-1 13.34 -1 12.68 -1 12 C-1.66 12 -2.32 12 -3 12 C-2.67 9.36 -2.34 6.72 -2 4 C-1.34 4 -0.68 4 0 4 C0 2.68 0 1.36 0 0 Z " fill="#D86C5D" transform="translate(222,475)"/>
<path d="M0 0 C2.64 0 5.28 0 8 0 C8.33 1.32 8.66 2.64 9 4 C6.03 3.505 6.03 3.505 3 3 C3 2.34 3 1.68 3 1 C2.01 0.67 1.02 0.34 0 0 Z " fill="#D75448" transform="translate(465,340)"/>
<path d="M0 0 C5.07612318 -0.61528766 7.82982006 1.38341651 12 4 C9.5332355 4.88336837 8.36140628 5.1312406 5.859375 4.22265625 C5.16328125 3.83980469 4.4671875 3.45695313 3.75 3.0625 C3.04359375 2.68222656 2.3371875 2.30195313 1.609375 1.91015625 C1.07828125 1.60980469 0.5471875 1.30945313 0 1 C0 0.67 0 0.34 0 0 Z " fill="#D52B1C" transform="translate(106,236)"/>
<path d="M0 0 C-5.5 4 -5.5 4 -10 4 C-10 3.34 -10 2.68 -10 2 C-3.375 -1.125 -3.375 -1.125 0 0 Z " fill="#CF2417" transform="translate(124,191)"/>
<path d="M0 0 C7.50769231 0.49230769 7.50769231 0.49230769 10 3.0625 C10.33 3.701875 10.66 4.34125 11 5 C5.25 4.125 5.25 4.125 3 3 C3 2.34 3 1.68 3 1 C2.01 0.67 1.02 0.34 0 0 Z " fill="#D52C20" transform="translate(597,164)"/>
<path d="M0 0 C1.32 0 2.64 0 4 0 C4 0.66 4 1.32 4 2 C6.64 2.33 9.28 2.66 12 3 C12 3.66 12 4.32 12 5 C6.92387682 5.61528766 4.17017994 3.61658349 0 1 C0 0.67 0 0.34 0 0 Z " fill="#D3291B" transform="translate(451,96)"/>
<path d="M0 0 C4.12751449 0.60698743 7.3321148 2.03810791 11 4 C7.67465243 5.10844919 5.37817425 4.84454356 2 4 C2 3.01 2 2.02 2 1 C1.34 0.67 0.68 0.34 0 0 Z " fill="#CF261A" transform="translate(400,72)"/>
<path d="M0 0 C0.99 0.33 1.98 0.66 3 1 C3 1.66 3 2.32 3 3 C3.66 3 4.32 3 5 3 C5 3.99 5 4.98 5 6 C2.83125748 5.49396008 1.00032373 5.00016187 -1 4 C-0.67 2.68 -0.34 1.36 0 0 Z " fill="#F3DAD6" transform="translate(269,673)"/>
<path d="M0 0 C0.33 1.32 0.66 2.64 1 4 C0.34 4 -0.32 4 -1 4 C-0.34 4.66 0.32 5.32 1 6 C0.8125 8.0625 0.8125 8.0625 0 10 C-0.99 10.33 -1.98 10.66 -3 11 C-2.67 8.36 -2.34 5.72 -2 3 C-1.34 3 -0.68 3 0 3 C0 2.01 0 1.02 0 0 Z " fill="#F3D3CF" transform="translate(550,616)"/>
<path d="M0 0 C0.99 0 1.98 0 3 0 C2.67 0.99 2.34 1.98 2 3 C-2.62 3 -7.24 3 -12 3 C-11.67 2.34 -11.34 1.68 -11 1 C-7.37 1.33 -3.74 1.66 0 2 C0 1.34 0 0.68 0 0 Z " fill="#EBB4AF" transform="translate(550,386)"/>
<path d="M0 0 C0.79921875 0.00902344 1.5984375 0.01804687 2.421875 0.02734375 C3.02515625 0.03894531 3.6284375 0.05054688 4.25 0.0625 C4.25 0.3925 4.25 0.7225 4.25 1.0625 C2.5484375 1.2790625 2.5484375 1.2790625 0.8125 1.5 C-2.55777201 1.67421478 -2.55777201 1.67421478 -3.75 3.0625 C-5.74958364 3.10330783 -7.75045254 3.10504356 -9.75 3.0625 C-8.75 1.0625 -8.75 1.0625 -6.984375 0.44140625 C-4.60849677 0.03850382 -2.40820483 -0.03541478 0 0 Z " fill="#D0170A" transform="translate(344.75,327.9375)"/>
<path d="M0 0 C3.0916909 2.52956528 3.90931332 5.22454612 5 9 C3.68 8.67 2.36 8.34 1 8 C0.67 5.36 0.34 2.72 0 0 Z " fill="#D02D22" transform="translate(91,221)"/>
<path d="M0 0 C-0.99 1.485 -0.99 1.485 -2 3 C-5.63 2.67 -9.26 2.34 -13 2 C-13 1.67 -13 1.34 -13 1 C-8.61414671 0.29826347 -4.44209357 -0.10834375 0 0 Z " fill="#D42F14" transform="translate(412,715)"/>
<path d="M0 0 C0.99 0.33 1.98 0.66 3 1 C1.02 2.98 -0.96 4.96 -3 7 C-3.99 6.67 -4.98 6.34 -6 6 C-4.71034824 4.62437146 -3.37310707 3.29233607 -2 2 C-1.34 2 -0.68 2 0 2 C0 1.34 0 0.68 0 0 Z " fill="#D32A1B" transform="translate(500,676)"/>
<path d="M0 0 C0.33 0 0.66 0 1 0 C1.3690205 10.55808656 1.3690205 10.55808656 -1 15 C-1.33 15 -1.66 15 -2 15 C-2.04254356 13.00045254 -2.04080783 10.99958364 -2 9 C-1.67 8.67 -1.34 8.34 -1 8 C-0.76924918 6.65252916 -0.58846937 5.29622435 -0.4375 3.9375 C-0.293125 2.638125 -0.14875 1.33875 0 0 Z " fill="#F6E2DF" transform="translate(565,570)"/>
<path d="M0 0 C3.63 0.33 7.26 0.66 11 1 C11 1.33 11 1.66 11 2 C10.21625 2.144375 9.4325 2.28875 8.625 2.4375 C6.03578982 2.87798925 6.03578982 2.87798925 4 4 C1.875 3.5625 1.875 3.5625 0 3 C0 2.01 0 1.02 0 0 Z " fill="#D43C2E" transform="translate(118,461)"/>
<path d="M0 0 C0.99 0.33 1.98 0.66 3 1 C3.33 2.65 3.66 4.3 4 6 C3.01 6.33 2.02 6.66 1 7 C1 6.34 1 5.68 1 5 C0.01 4.67 -0.98 4.34 -2 4 C-1.34 4 -0.68 4 0 4 C0 2.68 0 1.36 0 0 Z " fill="#DC5445" transform="translate(281,348)"/>
<path d="M0 0 C-0.33 0.99 -0.66 1.98 -1 3 C-4.3 3.33 -7.6 3.66 -11 4 C-11 3.34 -11 2.68 -11 2 C-9.73392393 1.46770674 -8.46189588 0.94955456 -7.1875 0.4375 C-6.47980469 0.14746094 -5.77210938 -0.14257812 -5.04296875 -0.44140625 C-3 -1 -3 -1 0 0 Z " fill="#F1C7C4" transform="translate(576,283)"/>
<path d="M0 0 C1.32 0.33 2.64 0.66 4 1 C2.68 2.65 1.36 4.3 0 6 C-0.99 5.67 -1.98 5.34 -3 5 C-3 4.01 -3 3.02 -3 2 C-2.01 2 -1.02 2 0 2 C0 1.34 0 0.68 0 0 Z " fill="#F8E4E2" transform="translate(647,247)"/>
<path d="M0 0 C0.33 0 0.66 0 1 0 C1 1.65 1 3.3 1 5 C1.66 5 2.32 5 3 5 C3 6.32 3 7.64 3 9 C1.68 8.34 0.36 7.68 -1 7 C-0.67 4.69 -0.34 2.38 0 0 Z " fill="#F7E5E1" transform="translate(221,601)"/>
<path d="M0 0 C0.33 0 0.66 0 1 0 C1.33 2.31 1.66 4.62 2 7 C0.68 7.99 -0.64 8.98 -2 10 C-2.22036864 6.14354879 -1.60355101 3.50776784 0 0 Z " fill="#F0C7C4" transform="translate(561,587)"/>
<path d="M0 0 C0.33 0.99 0.66 1.98 1 3 C-0.98 4.32 -2.96 5.64 -5 7 C-5.66 6.67 -6.32 6.34 -7 6 C-4.88929795 2.83394693 -3.26460973 1.80412643 0 0 Z " fill="#D43628" transform="translate(451,560)"/>
<path d="M0 0 C1.2065625 0.0309375 1.2065625 0.0309375 2.4375 0.0625 C2.4375 0.7225 2.4375 1.3825 2.4375 2.0625 C1.4475 2.0625 0.4575 2.0625 -0.5625 2.0625 C-0.5625 2.7225 -0.5625 3.3825 -0.5625 4.0625 C-2.8725 4.3925 -5.1825 4.7225 -7.5625 5.0625 C-6.5625 3.0625 -6.5625 3.0625 -3.5625 1.0625 C-2.5625 0.0625 -2.5625 0.0625 0 0 Z " fill="#DA6B5A" transform="translate(170.5625,459.9375)"/>
<path d="M0 0 C0.33 0 0.66 0 1 0 C1.17835515 4.54805635 0.99785435 7.8794254 -1 12 C-1.33 12 -1.66 12 -2 12 C-1.85831863 10.56208484 -1.71148957 9.1246763 -1.5625 7.6875 C-1.48128906 6.88699219 -1.40007812 6.08648437 -1.31640625 5.26171875 C-1 3 -1 3 0 0 Z " fill="#D01D11" transform="translate(119,404)"/>
<path d="M0 0 C4.7517398 0.43197635 6.92000054 1.32769295 10 5 C8.68 5 7.36 5 6 5 C6 4.34 6 3.68 6 3 C5.38125 2.87625 4.7625 2.7525 4.125 2.625 C2 2 2 2 0 0 Z " fill="#D2200F" transform="translate(488,350)"/>
<path d="M0 0 C2.97 0.495 2.97 0.495 6 1 C3.36095629 2.41377341 0.92879371 3.37240135 -2 4 C-2 4.66 -2 5.32 -2 6 C-3.32 5.67 -4.64 5.34 -6 5 C-5.01 5 -4.02 5 -3 5 C-3 4.34 -3 3.68 -3 3 C-2.01 3 -1.02 3 0 3 C0 2.01 0 1.02 0 0 Z " fill="#EEC5C1" transform="translate(308,99)"/>
<path d="M0 0 C2.95183101 2.95183101 3.08663988 5.95511947 4 10 C3.34 10 2.68 10 2 10 C-0.09350689 6.5980513 -0.17942163 3.94727588 0 0 Z " fill="#D2200F" transform="translate(219,590)"/>
<path d="M0 0 C1.65 1.32 3.3 2.64 5 4 C4.67 5.32 4.34 6.64 4 8 C0 3.375 0 3.375 0 0 Z " fill="#D42F1E" transform="translate(528,431)"/>
<path d="M0 0 C2.31 1.98 4.62 3.96 7 6 C6.01 6.33 5.02 6.66 4 7 C2 5.1875 2 5.1875 0 3 C0 2.01 0 1.02 0 0 Z " fill="#D1281C" transform="translate(532,379)"/>
<path d="M0 0 C0 0.99 0 1.98 0 3 C-1.32 3 -2.64 3 -4 3 C-4 3.66 -4 4.32 -4 5 C-5.32 5.33 -6.64 5.66 -8 6 C-8 5.34 -8 4.68 -8 4 C-7.01 4 -6.02 4 -5 4 C-5 3.01 -5 2.02 -5 1 C-2 0 -2 0 0 0 Z " fill="#F8E2DF" transform="translate(199,151)"/>
<path d="M0 0 C1.32 0.33 2.64 0.66 4 1 C3.01 2.485 3.01 2.485 2 4 C-0.625 4.1875 -0.625 4.1875 -3 4 C-3 3.34 -3 2.68 -3 2 C-2.01 2 -1.02 2 0 2 C0 1.34 0 0.68 0 0 Z " fill="#D52517" transform="translate(259,125)"/>
<path d="M0 0 C0.99 0.33 1.98 0.66 3 1 C0.75 3.0625 0.75 3.0625 -2 5 C-4.3125 4.75 -4.3125 4.75 -6 4 C-3.1875 1.9375 -3.1875 1.9375 0 0 Z " fill="#D44F40" transform="translate(269,123)"/>
<path d="M0 0 C2.09749995 2.35968744 2.96905704 3.54616994 3.1875 6.75 C3.0946875 7.86375 3.0946875 7.86375 3 9 C2.34 9 1.68 9 1 9 C0.67 6.03 0.34 3.06 0 0 Z " fill="#D22B20" transform="translate(223,601)"/>
<path d="M0 0 C3.87132028 0.57352893 6.08172796 2.48704352 9 5 C5.65626525 4.44271087 2.96687001 3.64826111 0 2 C0 1.34 0 0.68 0 0 Z " fill="#D12616" transform="translate(417,498)"/>
<path d="M0 0 C1.32 0 2.64 0 4 0 C4 0.66 4 1.32 4 2 C5.32 2.66 6.64 3.32 8 4 C5 5 5 5 2.3125 3.6875 C1.549375 3.130625 0.78625 2.57375 0 2 C0 1.34 0 0.68 0 0 Z " fill="#D22517" transform="translate(384,476)"/>
<path d="M0 0 C1.29409592 0.45142881 2.58521059 0.91141021 3.875 1.375 C4.95394531 1.75785156 4.95394531 1.75785156 6.0546875 2.1484375 C8 3 8 3 10 5 C6.28111761 4.49287967 3.26545761 3.88391785 0 2 C0 1.34 0 0.68 0 0 Z " fill="#CF1D10" transform="translate(474,342)"/>
<path d="M0 0 C6.4 -0.49230769 6.4 -0.49230769 9.4375 2 C10.2109375 2.99 10.2109375 2.99 11 4 C9.35 4 7.7 4 6 4 C6 3.34 6 2.68 6 2 C4.02 2 2.04 2 0 2 C0 1.34 0 0.68 0 0 Z " fill="#DA6257" transform="translate(453,335)"/>
<path d="M0 0 C2.38564077 0.57584432 4.66682784 1.22227595 7 2 C7 2.66 7 3.32 7 4 C5.35 4 3.7 4 2 4 C2 3.34 2 2.68 2 2 C1.34 2 0.68 2 0 2 C0 1.34 0 0.68 0 0 Z " fill="#D52813" transform="translate(515,125)"/>
</svg>
